<mxfile host="65bd71144e">
    <diagram id="9hJ7ps5wpYgy56A1wMgU" name="Page-1">
        <mxGraphModel dx="820" dy="1898" grid="1" gridSize="10" guides="1" tooltips="1" connect="1" arrows="1" fold="1" page="1" pageScale="1" pageWidth="700" pageHeight="1400" math="1" shadow="0">
            <root>
                <mxCell id="0"/>
                <mxCell id="1" parent="0"/>
                <mxCell id="2" value="Assets" style="childLayout=tableLayout;recursiveResize=0;strokeColor=#98bf21;fillColor=#A7C942;shadow=0;rounded=0;glass=0;" vertex="1" parent="1">
                    <mxGeometry x="40" y="80" width="120" height="146" as="geometry"/>
                </mxCell>
                <mxCell id="3" style="shape=tableRow;horizontal=0;startSize=0;swimlaneHead=0;swimlaneBody=0;top=0;left=0;bottom=0;right=0;dropTarget=0;collapsible=0;recursiveResize=0;expand=0;fontStyle=0;strokeColor=inherit;fillColor=#ffffff;" vertex="1" parent="2">
                    <mxGeometry width="120" height="20" as="geometry"/>
                </mxCell>
                <mxCell id="4" value="Epi" style="connectable=0;recursiveResize=0;strokeColor=inherit;fillColor=#A7C942;align=center;fontStyle=1;fontColor=#FFFFFF;html=1;" vertex="1" parent="3">
                    <mxGeometry width="60" height="20" as="geometry">
                        <mxRectangle width="60" height="20" as="alternateBounds"/>
                    </mxGeometry>
                </mxCell>
                <mxCell id="5" value="Age" style="connectable=0;recursiveResize=0;strokeColor=inherit;fillColor=#A7C942;align=center;fontStyle=1;fontColor=#FFFFFF;html=1;" vertex="1" parent="3">
                    <mxGeometry x="60" width="60" height="20" as="geometry">
                        <mxRectangle width="60" height="20" as="alternateBounds"/>
                    </mxGeometry>
                </mxCell>
                <mxCell id="7" value="" style="shape=tableRow;horizontal=0;startSize=0;swimlaneHead=0;swimlaneBody=0;top=0;left=0;bottom=0;right=0;dropTarget=0;collapsible=0;recursiveResize=0;expand=0;fontStyle=0;strokeColor=inherit;fillColor=#ffffff;" vertex="1" parent="2">
                    <mxGeometry y="20" width="120" height="20" as="geometry"/>
                </mxCell>
                <mxCell id="8" value="S" style="connectable=0;recursiveResize=0;strokeColor=inherit;fillColor=inherit;align=center;whiteSpace=wrap;html=1;" vertex="1" parent="7">
                    <mxGeometry width="60" height="20" as="geometry">
                        <mxRectangle width="60" height="20" as="alternateBounds"/>
                    </mxGeometry>
                </mxCell>
                <mxCell id="9" value="young" style="connectable=0;recursiveResize=0;strokeColor=inherit;fillColor=inherit;align=center;whiteSpace=wrap;html=1;" vertex="1" parent="7">
                    <mxGeometry x="60" width="60" height="20" as="geometry">
                        <mxRectangle width="60" height="20" as="alternateBounds"/>
                    </mxGeometry>
                </mxCell>
                <mxCell id="11" value="" style="shape=tableRow;horizontal=0;startSize=0;swimlaneHead=0;swimlaneBody=0;top=0;left=0;bottom=0;right=0;dropTarget=0;collapsible=0;recursiveResize=0;expand=0;fontStyle=1;strokeColor=inherit;fillColor=#EAF2D3;" vertex="1" parent="2">
                    <mxGeometry y="40" width="120" height="23" as="geometry"/>
                </mxCell>
                <mxCell id="12" value="I" style="connectable=0;recursiveResize=0;strokeColor=inherit;fillColor=inherit;whiteSpace=wrap;html=1;" vertex="1" parent="11">
                    <mxGeometry width="60" height="23" as="geometry">
                        <mxRectangle width="60" height="23" as="alternateBounds"/>
                    </mxGeometry>
                </mxCell>
                <mxCell id="13" value="young" style="connectable=0;recursiveResize=0;strokeColor=inherit;fillColor=inherit;whiteSpace=wrap;html=1;" vertex="1" parent="11">
                    <mxGeometry x="60" width="60" height="23" as="geometry">
                        <mxRectangle width="60" height="23" as="alternateBounds"/>
                    </mxGeometry>
                </mxCell>
                <mxCell id="15" value="" style="shape=tableRow;horizontal=0;startSize=0;swimlaneHead=0;swimlaneBody=0;top=0;left=0;bottom=0;right=0;dropTarget=0;collapsible=0;recursiveResize=0;expand=0;fontStyle=0;strokeColor=inherit;fillColor=#ffffff;" vertex="1" parent="2">
                    <mxGeometry y="63" width="120" height="20" as="geometry"/>
                </mxCell>
                <mxCell id="16" value="infection" style="connectable=0;recursiveResize=0;strokeColor=inherit;fillColor=inherit;fontStyle=0;align=center;whiteSpace=wrap;html=1;" vertex="1" parent="15">
                    <mxGeometry width="60" height="20" as="geometry">
                        <mxRectangle width="60" height="20" as="alternateBounds"/>
                    </mxGeometry>
                </mxCell>
                <mxCell id="17" value="young" style="connectable=0;recursiveResize=0;strokeColor=inherit;fillColor=inherit;fontStyle=0;align=center;whiteSpace=wrap;html=1;" vertex="1" parent="15">
                    <mxGeometry x="60" width="60" height="20" as="geometry">
                        <mxRectangle width="60" height="20" as="alternateBounds"/>
                    </mxGeometry>
                </mxCell>
                <mxCell id="82" style="shape=tableRow;horizontal=0;startSize=0;swimlaneHead=0;swimlaneBody=0;top=0;left=0;bottom=0;right=0;dropTarget=0;collapsible=0;recursiveResize=0;expand=0;fontStyle=1;strokeColor=inherit;fillColor=#EAF2D3;" vertex="1" parent="2">
                    <mxGeometry y="83" width="120" height="23" as="geometry"/>
                </mxCell>
                <mxCell id="83" value="S" style="connectable=0;recursiveResize=0;strokeColor=inherit;fillColor=inherit;whiteSpace=wrap;html=1;" vertex="1" parent="82">
                    <mxGeometry width="60" height="23" as="geometry">
                        <mxRectangle width="60" height="23" as="alternateBounds"/>
                    </mxGeometry>
                </mxCell>
                <mxCell id="84" value="old" style="connectable=0;recursiveResize=0;strokeColor=inherit;fillColor=inherit;whiteSpace=wrap;html=1;" vertex="1" parent="82">
                    <mxGeometry x="60" width="60" height="23" as="geometry">
                        <mxRectangle width="60" height="23" as="alternateBounds"/>
                    </mxGeometry>
                </mxCell>
                <mxCell id="100" style="shape=tableRow;horizontal=0;startSize=0;swimlaneHead=0;swimlaneBody=0;top=0;left=0;bottom=0;right=0;dropTarget=0;collapsible=0;recursiveResize=0;expand=0;fontStyle=0;strokeColor=inherit;fillColor=#ffffff;" vertex="1" parent="2">
                    <mxGeometry y="106" width="120" height="20" as="geometry"/>
                </mxCell>
                <mxCell id="101" value="I" style="connectable=0;recursiveResize=0;strokeColor=inherit;fillColor=inherit;fontStyle=0;align=center;whiteSpace=wrap;html=1;" vertex="1" parent="100">
                    <mxGeometry width="60" height="20" as="geometry">
                        <mxRectangle width="60" height="20" as="alternateBounds"/>
                    </mxGeometry>
                </mxCell>
                <mxCell id="102" value="old" style="connectable=0;recursiveResize=0;strokeColor=inherit;fillColor=inherit;fontStyle=0;align=center;whiteSpace=wrap;html=1;" vertex="1" parent="100">
                    <mxGeometry x="60" width="60" height="20" as="geometry">
                        <mxRectangle width="60" height="20" as="alternateBounds"/>
                    </mxGeometry>
                </mxCell>
                <mxCell id="19" value="" style="shape=tableRow;horizontal=0;startSize=0;swimlaneHead=0;swimlaneBody=0;top=0;left=0;bottom=0;right=0;dropTarget=0;collapsible=0;recursiveResize=0;expand=0;fontStyle=1;strokeColor=inherit;fillColor=#EAF2D3;" vertex="1" parent="2">
                    <mxGeometry y="126" width="120" height="20" as="geometry"/>
                </mxCell>
                <mxCell id="20" value="infection" style="connectable=0;recursiveResize=0;strokeColor=inherit;fillColor=inherit;whiteSpace=wrap;html=1;" vertex="1" parent="19">
                    <mxGeometry width="60" height="20" as="geometry">
                        <mxRectangle width="60" height="20" as="alternateBounds"/>
                    </mxGeometry>
                </mxCell>
                <mxCell id="21" value="old" style="connectable=0;recursiveResize=0;strokeColor=inherit;fillColor=inherit;whiteSpace=wrap;html=1;" vertex="1" parent="19">
                    <mxGeometry x="60" width="60" height="20" as="geometry">
                        <mxRectangle width="60" height="20" as="alternateBounds"/>
                    </mxGeometry>
                </mxCell>
                <mxCell id="23" value="Assets" style="childLayout=tableLayout;recursiveResize=0;strokeColor=#98bf21;fillColor=#A7C942;shadow=0;rounded=0;glass=0;" vertex="1" parent="1">
                    <mxGeometry x="40" y="280" width="512" height="40" as="geometry"/>
                </mxCell>
                <mxCell id="24" style="shape=tableRow;horizontal=0;startSize=0;swimlaneHead=0;swimlaneBody=0;top=0;left=0;bottom=0;right=0;dropTarget=0;collapsible=0;recursiveResize=0;expand=0;fontStyle=0;strokeColor=inherit;fillColor=#ffffff;" vertex="1" parent="23">
                    <mxGeometry width="512" height="20" as="geometry"/>
                </mxCell>
                <mxCell id="25" value="from" style="connectable=0;recursiveResize=0;strokeColor=inherit;fillColor=#A7C942;align=center;fontStyle=1;fontColor=#FFFFFF;html=1;" vertex="1" parent="24">
                    <mxGeometry width="45" height="20" as="geometry">
                        <mxRectangle width="45" height="20" as="alternateBounds"/>
                    </mxGeometry>
                </mxCell>
                <mxCell id="26" value="to" style="connectable=0;recursiveResize=0;strokeColor=inherit;fillColor=#A7C942;align=center;fontStyle=1;fontColor=#FFFFFF;html=1;" vertex="1" parent="24">
                    <mxGeometry x="45" width="44" height="20" as="geometry">
                        <mxRectangle width="44" height="20" as="alternateBounds"/>
                    </mxGeometry>
                </mxCell>
                <mxCell id="39" value="flow" style="connectable=0;recursiveResize=0;strokeColor=inherit;fillColor=#A7C942;align=center;fontStyle=1;fontColor=#FFFFFF;html=1;" vertex="1" parent="24">
                    <mxGeometry x="89" width="56" height="20" as="geometry">
                        <mxRectangle width="56" height="20" as="alternateBounds"/>
                    </mxGeometry>
                </mxCell>
                <mxCell id="49" value="from_filter" style="connectable=0;recursiveResize=0;strokeColor=inherit;fillColor=#A7C942;align=center;fontStyle=1;fontColor=#FFFFFF;html=1;" vertex="1" parent="24">
                    <mxGeometry x="145" width="67" height="20" as="geometry">
                        <mxRectangle width="67" height="20" as="alternateBounds"/>
                    </mxGeometry>
                </mxCell>
                <mxCell id="54" value="to_filter" style="connectable=0;recursiveResize=0;strokeColor=inherit;fillColor=#A7C942;align=center;fontStyle=1;fontColor=#FFFFFF;html=1;" vertex="1" parent="24">
                    <mxGeometry x="212" width="55" height="20" as="geometry">
                        <mxRectangle width="55" height="20" as="alternateBounds"/>
                    </mxGeometry>
                </mxCell>
                <mxCell id="59" value="flow_filter" style="connectable=0;recursiveResize=0;strokeColor=inherit;fillColor=#A7C942;align=center;fontStyle=1;fontColor=#FFFFFF;html=1;" vertex="1" parent="24">
                    <mxGeometry x="267" width="78" height="20" as="geometry">
                        <mxRectangle width="78" height="20" as="alternateBounds"/>
                    </mxGeometry>
                </mxCell>
                <mxCell id="64" value="from_to_by" style="connectable=0;recursiveResize=0;strokeColor=inherit;fillColor=#A7C942;align=center;fontStyle=1;fontColor=#FFFFFF;html=1;" vertex="1" parent="24">
                    <mxGeometry x="345" width="78" height="20" as="geometry">
                        <mxRectangle width="78" height="20" as="alternateBounds"/>
                    </mxGeometry>
                </mxCell>
                <mxCell id="69" value="from_flow_by" style="connectable=0;recursiveResize=0;strokeColor=inherit;fillColor=#A7C942;align=center;fontStyle=1;fontColor=#FFFFFF;html=1;" vertex="1" parent="24">
                    <mxGeometry x="423" width="89" height="20" as="geometry">
                        <mxRectangle width="89" height="20" as="alternateBounds"/>
                    </mxGeometry>
                </mxCell>
                <mxCell id="27" value="" style="shape=tableRow;horizontal=0;startSize=0;swimlaneHead=0;swimlaneBody=0;top=0;left=0;bottom=0;right=0;dropTarget=0;collapsible=0;recursiveResize=0;expand=0;fontStyle=0;strokeColor=inherit;fillColor=#ffffff;" vertex="1" parent="23">
                    <mxGeometry y="20" width="512" height="20" as="geometry"/>
                </mxCell>
                <mxCell id="28" value="S" style="connectable=0;recursiveResize=0;strokeColor=inherit;fillColor=inherit;align=center;whiteSpace=wrap;html=1;" vertex="1" parent="27">
                    <mxGeometry width="45" height="20" as="geometry">
                        <mxRectangle width="45" height="20" as="alternateBounds"/>
                    </mxGeometry>
                </mxCell>
                <mxCell id="29" value="I" style="connectable=0;recursiveResize=0;strokeColor=inherit;fillColor=inherit;align=center;whiteSpace=wrap;html=1;" vertex="1" parent="27">
                    <mxGeometry x="45" width="44" height="20" as="geometry">
                        <mxRectangle width="44" height="20" as="alternateBounds"/>
                    </mxGeometry>
                </mxCell>
                <mxCell id="40" value="infection" style="connectable=0;recursiveResize=0;strokeColor=inherit;fillColor=inherit;align=center;whiteSpace=wrap;html=1;" vertex="1" parent="27">
                    <mxGeometry x="89" width="56" height="20" as="geometry">
                        <mxRectangle width="56" height="20" as="alternateBounds"/>
                    </mxGeometry>
                </mxCell>
                <mxCell id="50" value="Epi" style="connectable=0;recursiveResize=0;strokeColor=inherit;fillColor=inherit;align=center;whiteSpace=wrap;html=1;" vertex="1" parent="27">
                    <mxGeometry x="145" width="67" height="20" as="geometry">
                        <mxRectangle width="67" height="20" as="alternateBounds"/>
                    </mxGeometry>
                </mxCell>
                <mxCell id="55" value="Epi" style="connectable=0;recursiveResize=0;strokeColor=inherit;fillColor=inherit;align=center;whiteSpace=wrap;html=1;" vertex="1" parent="27">
                    <mxGeometry x="212" width="55" height="20" as="geometry">
                        <mxRectangle width="55" height="20" as="alternateBounds"/>
                    </mxGeometry>
                </mxCell>
                <mxCell id="60" value="Epi" style="connectable=0;recursiveResize=0;strokeColor=inherit;fillColor=inherit;align=center;whiteSpace=wrap;html=1;" vertex="1" parent="27">
                    <mxGeometry x="267" width="78" height="20" as="geometry">
                        <mxRectangle width="78" height="20" as="alternateBounds"/>
                    </mxGeometry>
                </mxCell>
                <mxCell id="65" value="Age" style="connectable=0;recursiveResize=0;strokeColor=inherit;fillColor=inherit;align=center;whiteSpace=wrap;html=1;" vertex="1" parent="27">
                    <mxGeometry x="345" width="78" height="20" as="geometry">
                        <mxRectangle width="78" height="20" as="alternateBounds"/>
                    </mxGeometry>
                </mxCell>
                <mxCell id="70" value="Age" style="connectable=0;recursiveResize=0;strokeColor=inherit;fillColor=inherit;align=center;whiteSpace=wrap;html=1;" vertex="1" parent="27">
                    <mxGeometry x="423" width="89" height="20" as="geometry">
                        <mxRectangle width="89" height="20" as="alternateBounds"/>
                    </mxGeometry>
                </mxCell>
                <mxCell id="131" value="Assets" style="childLayout=tableLayout;recursiveResize=0;strokeColor=#98bf21;fillColor=#A7C942;shadow=0;rounded=0;glass=0;" vertex="1" parent="1">
                    <mxGeometry x="40" y="400" width="120" height="63" as="geometry"/>
                </mxCell>
                <mxCell id="132" style="shape=tableRow;horizontal=0;startSize=0;swimlaneHead=0;swimlaneBody=0;top=0;left=0;bottom=0;right=0;dropTarget=0;collapsible=0;recursiveResize=0;expand=0;fontStyle=0;strokeColor=inherit;fillColor=#ffffff;" vertex="1" parent="131">
                    <mxGeometry width="120" height="20" as="geometry"/>
                </mxCell>
                <mxCell id="133" value="Epi" style="connectable=0;recursiveResize=0;strokeColor=inherit;fillColor=#A7C942;align=center;fontStyle=1;fontColor=#FFFFFF;html=1;" vertex="1" parent="132">
                    <mxGeometry width="60" height="20" as="geometry">
                        <mxRectangle width="60" height="20" as="alternateBounds"/>
                    </mxGeometry>
                </mxCell>
                <mxCell id="134" value="Age" style="connectable=0;recursiveResize=0;strokeColor=inherit;fillColor=#A7C942;align=center;fontStyle=1;fontColor=#FFFFFF;html=1;" vertex="1" parent="132">
                    <mxGeometry x="60" width="60" height="20" as="geometry">
                        <mxRectangle width="60" height="20" as="alternateBounds"/>
                    </mxGeometry>
                </mxCell>
                <mxCell id="135" value="" style="shape=tableRow;horizontal=0;startSize=0;swimlaneHead=0;swimlaneBody=0;top=0;left=0;bottom=0;right=0;dropTarget=0;collapsible=0;recursiveResize=0;expand=0;fontStyle=0;strokeColor=inherit;fillColor=#ffffff;" vertex="1" parent="131">
                    <mxGeometry y="20" width="120" height="20" as="geometry"/>
                </mxCell>
                <mxCell id="136" value="S" style="connectable=0;recursiveResize=0;strokeColor=inherit;fillColor=inherit;align=center;whiteSpace=wrap;html=1;" vertex="1" parent="135">
                    <mxGeometry width="60" height="20" as="geometry">
                        <mxRectangle width="60" height="20" as="alternateBounds"/>
                    </mxGeometry>
                </mxCell>
                <mxCell id="137" value="young" style="connectable=0;recursiveResize=0;strokeColor=inherit;fillColor=inherit;align=center;whiteSpace=wrap;html=1;" vertex="1" parent="135">
                    <mxGeometry x="60" width="60" height="20" as="geometry">
                        <mxRectangle width="60" height="20" as="alternateBounds"/>
                    </mxGeometry>
                </mxCell>
                <mxCell id="138" value="" style="shape=tableRow;horizontal=0;startSize=0;swimlaneHead=0;swimlaneBody=0;top=0;left=0;bottom=0;right=0;dropTarget=0;collapsible=0;recursiveResize=0;expand=0;fontStyle=1;strokeColor=inherit;fillColor=#EAF2D3;" vertex="1" parent="131">
                    <mxGeometry y="40" width="120" height="23" as="geometry"/>
                </mxCell>
                <mxCell id="139" value="S" style="connectable=0;recursiveResize=0;strokeColor=inherit;fillColor=inherit;whiteSpace=wrap;html=1;" vertex="1" parent="138">
                    <mxGeometry width="60" height="23" as="geometry">
                        <mxRectangle width="60" height="23" as="alternateBounds"/>
                    </mxGeometry>
                </mxCell>
                <mxCell id="140" value="old" style="connectable=0;recursiveResize=0;strokeColor=inherit;fillColor=inherit;whiteSpace=wrap;html=1;" vertex="1" parent="138">
                    <mxGeometry x="60" width="60" height="23" as="geometry">
                        <mxRectangle width="60" height="23" as="alternateBounds"/>
                    </mxGeometry>
                </mxCell>
                <mxCell id="153" value="Assets" style="childLayout=tableLayout;recursiveResize=0;strokeColor=#98bf21;fillColor=#A7C942;shadow=0;rounded=0;glass=0;" vertex="1" parent="1">
                    <mxGeometry x="200" y="400" width="120" height="63" as="geometry"/>
                </mxCell>
                <mxCell id="154" style="shape=tableRow;horizontal=0;startSize=0;swimlaneHead=0;swimlaneBody=0;top=0;left=0;bottom=0;right=0;dropTarget=0;collapsible=0;recursiveResize=0;expand=0;fontStyle=0;strokeColor=inherit;fillColor=#ffffff;" vertex="1" parent="153">
                    <mxGeometry width="120" height="20" as="geometry"/>
                </mxCell>
                <mxCell id="155" value="Epi" style="connectable=0;recursiveResize=0;strokeColor=inherit;fillColor=#A7C942;align=center;fontStyle=1;fontColor=#FFFFFF;html=1;" vertex="1" parent="154">
                    <mxGeometry width="60" height="20" as="geometry">
                        <mxRectangle width="60" height="20" as="alternateBounds"/>
                    </mxGeometry>
                </mxCell>
                <mxCell id="156" value="Age" style="connectable=0;recursiveResize=0;strokeColor=inherit;fillColor=#A7C942;align=center;fontStyle=1;fontColor=#FFFFFF;html=1;" vertex="1" parent="154">
                    <mxGeometry x="60" width="60" height="20" as="geometry">
                        <mxRectangle width="60" height="20" as="alternateBounds"/>
                    </mxGeometry>
                </mxCell>
                <mxCell id="157" value="" style="shape=tableRow;horizontal=0;startSize=0;swimlaneHead=0;swimlaneBody=0;top=0;left=0;bottom=0;right=0;dropTarget=0;collapsible=0;recursiveResize=0;expand=0;fontStyle=0;strokeColor=inherit;fillColor=#ffffff;" vertex="1" parent="153">
                    <mxGeometry y="20" width="120" height="20" as="geometry"/>
                </mxCell>
                <mxCell id="158" value="I" style="connectable=0;recursiveResize=0;strokeColor=inherit;fillColor=inherit;align=center;whiteSpace=wrap;html=1;" vertex="1" parent="157">
                    <mxGeometry width="60" height="20" as="geometry">
                        <mxRectangle width="60" height="20" as="alternateBounds"/>
                    </mxGeometry>
                </mxCell>
                <mxCell id="159" value="young" style="connectable=0;recursiveResize=0;strokeColor=inherit;fillColor=inherit;align=center;whiteSpace=wrap;html=1;" vertex="1" parent="157">
                    <mxGeometry x="60" width="60" height="20" as="geometry">
                        <mxRectangle width="60" height="20" as="alternateBounds"/>
                    </mxGeometry>
                </mxCell>
                <mxCell id="160" value="" style="shape=tableRow;horizontal=0;startSize=0;swimlaneHead=0;swimlaneBody=0;top=0;left=0;bottom=0;right=0;dropTarget=0;collapsible=0;recursiveResize=0;expand=0;fontStyle=1;strokeColor=inherit;fillColor=#EAF2D3;" vertex="1" parent="153">
                    <mxGeometry y="40" width="120" height="23" as="geometry"/>
                </mxCell>
                <mxCell id="161" value="I" style="connectable=0;recursiveResize=0;strokeColor=inherit;fillColor=inherit;whiteSpace=wrap;html=1;" vertex="1" parent="160">
                    <mxGeometry width="60" height="23" as="geometry">
                        <mxRectangle width="60" height="23" as="alternateBounds"/>
                    </mxGeometry>
                </mxCell>
                <mxCell id="162" value="old" style="connectable=0;recursiveResize=0;strokeColor=inherit;fillColor=inherit;whiteSpace=wrap;html=1;" vertex="1" parent="160">
                    <mxGeometry x="60" width="60" height="23" as="geometry">
                        <mxRectangle width="60" height="23" as="alternateBounds"/>
                    </mxGeometry>
                </mxCell>
                <mxCell id="163" value="Assets" style="childLayout=tableLayout;recursiveResize=0;strokeColor=#98bf21;fillColor=#A7C942;shadow=0;rounded=0;glass=0;" vertex="1" parent="1">
                    <mxGeometry x="360" y="400" width="120" height="63" as="geometry"/>
                </mxCell>
                <mxCell id="164" style="shape=tableRow;horizontal=0;startSize=0;swimlaneHead=0;swimlaneBody=0;top=0;left=0;bottom=0;right=0;dropTarget=0;collapsible=0;recursiveResize=0;expand=0;fontStyle=0;strokeColor=inherit;fillColor=#ffffff;" vertex="1" parent="163">
                    <mxGeometry width="120" height="20" as="geometry"/>
                </mxCell>
                <mxCell id="165" value="Epi" style="connectable=0;recursiveResize=0;strokeColor=inherit;fillColor=#A7C942;align=center;fontStyle=1;fontColor=#FFFFFF;html=1;" vertex="1" parent="164">
                    <mxGeometry width="60" height="20" as="geometry">
                        <mxRectangle width="60" height="20" as="alternateBounds"/>
                    </mxGeometry>
                </mxCell>
                <mxCell id="166" value="Age" style="connectable=0;recursiveResize=0;strokeColor=inherit;fillColor=#A7C942;align=center;fontStyle=1;fontColor=#FFFFFF;html=1;" vertex="1" parent="164">
                    <mxGeometry x="60" width="60" height="20" as="geometry">
                        <mxRectangle width="60" height="20" as="alternateBounds"/>
                    </mxGeometry>
                </mxCell>
                <mxCell id="167" value="" style="shape=tableRow;horizontal=0;startSize=0;swimlaneHead=0;swimlaneBody=0;top=0;left=0;bottom=0;right=0;dropTarget=0;collapsible=0;recursiveResize=0;expand=0;fontStyle=0;strokeColor=inherit;fillColor=#ffffff;" vertex="1" parent="163">
                    <mxGeometry y="20" width="120" height="20" as="geometry"/>
                </mxCell>
                <mxCell id="168" value="infection" style="connectable=0;recursiveResize=0;strokeColor=inherit;fillColor=inherit;align=center;whiteSpace=wrap;html=1;" vertex="1" parent="167">
                    <mxGeometry width="60" height="20" as="geometry">
                        <mxRectangle width="60" height="20" as="alternateBounds"/>
                    </mxGeometry>
                </mxCell>
                <mxCell id="169" value="young" style="connectable=0;recursiveResize=0;strokeColor=inherit;fillColor=inherit;align=center;whiteSpace=wrap;html=1;" vertex="1" parent="167">
                    <mxGeometry x="60" width="60" height="20" as="geometry">
                        <mxRectangle width="60" height="20" as="alternateBounds"/>
                    </mxGeometry>
                </mxCell>
                <mxCell id="170" value="" style="shape=tableRow;horizontal=0;startSize=0;swimlaneHead=0;swimlaneBody=0;top=0;left=0;bottom=0;right=0;dropTarget=0;collapsible=0;recursiveResize=0;expand=0;fontStyle=1;strokeColor=inherit;fillColor=#EAF2D3;" vertex="1" parent="163">
                    <mxGeometry y="40" width="120" height="23" as="geometry"/>
                </mxCell>
                <mxCell id="171" value="infection" style="connectable=0;recursiveResize=0;strokeColor=inherit;fillColor=inherit;whiteSpace=wrap;html=1;" vertex="1" parent="170">
                    <mxGeometry width="60" height="23" as="geometry">
                        <mxRectangle width="60" height="23" as="alternateBounds"/>
                    </mxGeometry>
                </mxCell>
                <mxCell id="172" value="old" style="connectable=0;recursiveResize=0;strokeColor=inherit;fillColor=inherit;whiteSpace=wrap;html=1;" vertex="1" parent="170">
                    <mxGeometry x="60" width="60" height="23" as="geometry">
                        <mxRectangle width="60" height="23" as="alternateBounds"/>
                    </mxGeometry>
                </mxCell>
                <mxCell id="202" value="Assets" style="childLayout=tableLayout;recursiveResize=0;strokeColor=#98bf21;fillColor=#A7C942;shadow=0;rounded=0;glass=0;" vertex="1" parent="1">
                    <mxGeometry x="40" y="520" width="172" height="63" as="geometry"/>
                </mxCell>
                <mxCell id="203" style="shape=tableRow;horizontal=0;startSize=0;swimlaneHead=0;swimlaneBody=0;top=0;left=0;bottom=0;right=0;dropTarget=0;collapsible=0;recursiveResize=0;expand=0;fontStyle=0;strokeColor=inherit;fillColor=#ffffff;" vertex="1" parent="202">
                    <mxGeometry width="172" height="20" as="geometry"/>
                </mxCell>
                <mxCell id="204" value="from" style="connectable=0;recursiveResize=0;strokeColor=inherit;fillColor=#A7C942;align=center;fontStyle=1;fontColor=#FFFFFF;html=1;" vertex="1" parent="203">
                    <mxGeometry width="87" height="20" as="geometry">
                        <mxRectangle width="87" height="20" as="alternateBounds"/>
                    </mxGeometry>
                </mxCell>
                <mxCell id="205" value="to" style="connectable=0;recursiveResize=0;strokeColor=inherit;fillColor=#A7C942;align=center;fontStyle=1;fontColor=#FFFFFF;html=1;" vertex="1" parent="203">
                    <mxGeometry x="87" width="85" height="20" as="geometry">
                        <mxRectangle width="85" height="20" as="alternateBounds"/>
                    </mxGeometry>
                </mxCell>
                <mxCell id="212" value="" style="shape=tableRow;horizontal=0;startSize=0;swimlaneHead=0;swimlaneBody=0;top=0;left=0;bottom=0;right=0;dropTarget=0;collapsible=0;recursiveResize=0;expand=0;fontStyle=0;strokeColor=inherit;fillColor=#ffffff;" vertex="1" parent="202">
                    <mxGeometry y="20" width="172" height="20" as="geometry"/>
                </mxCell>
                <mxCell id="213" value="S.young" style="connectable=0;recursiveResize=0;strokeColor=inherit;fillColor=inherit;align=center;whiteSpace=wrap;html=1;" vertex="1" parent="212">
                    <mxGeometry width="87" height="20" as="geometry">
                        <mxRectangle width="87" height="20" as="alternateBounds"/>
                    </mxGeometry>
                </mxCell>
                <mxCell id="214" value="I.young" style="connectable=0;recursiveResize=0;strokeColor=inherit;fillColor=inherit;align=center;whiteSpace=wrap;html=1;" vertex="1" parent="212">
                    <mxGeometry x="87" width="85" height="20" as="geometry">
                        <mxRectangle width="85" height="20" as="alternateBounds"/>
                    </mxGeometry>
                </mxCell>
                <mxCell id="221" value="" style="shape=tableRow;horizontal=0;startSize=0;swimlaneHead=0;swimlaneBody=0;top=0;left=0;bottom=0;right=0;dropTarget=0;collapsible=0;recursiveResize=0;expand=0;fontStyle=1;strokeColor=inherit;fillColor=#EAF2D3;" vertex="1" parent="202">
                    <mxGeometry y="40" width="172" height="23" as="geometry"/>
                </mxCell>
                <mxCell id="222" value="S.old" style="connectable=0;recursiveResize=0;strokeColor=inherit;fillColor=inherit;whiteSpace=wrap;html=1;" vertex="1" parent="221">
                    <mxGeometry width="87" height="23" as="geometry">
                        <mxRectangle width="87" height="23" as="alternateBounds"/>
                    </mxGeometry>
                </mxCell>
                <mxCell id="223" value="I.old" style="connectable=0;recursiveResize=0;strokeColor=inherit;fillColor=inherit;whiteSpace=wrap;html=1;" vertex="1" parent="221">
                    <mxGeometry x="87" width="85" height="23" as="geometry">
                        <mxRectangle width="85" height="23" as="alternateBounds"/>
                    </mxGeometry>
                </mxCell>
                <mxCell id="230" value="Assets" style="childLayout=tableLayout;recursiveResize=0;strokeColor=#98bf21;fillColor=#A7C942;shadow=0;rounded=0;glass=0;" vertex="1" parent="1">
                    <mxGeometry x="40" y="637" width="280" height="63" as="geometry"/>
                </mxCell>
                <mxCell id="231" style="shape=tableRow;horizontal=0;startSize=0;swimlaneHead=0;swimlaneBody=0;top=0;left=0;bottom=0;right=0;dropTarget=0;collapsible=0;recursiveResize=0;expand=0;fontStyle=0;strokeColor=inherit;fillColor=#ffffff;" vertex="1" parent="230">
                    <mxGeometry width="280" height="20" as="geometry"/>
                </mxCell>
                <mxCell id="232" value="from" style="connectable=0;recursiveResize=0;strokeColor=inherit;fillColor=#A7C942;align=center;fontStyle=1;fontColor=#FFFFFF;html=1;" vertex="1" parent="231">
                    <mxGeometry width="87" height="20" as="geometry">
                        <mxRectangle width="87" height="20" as="alternateBounds"/>
                    </mxGeometry>
                </mxCell>
                <mxCell id="233" value="to" style="connectable=0;recursiveResize=0;strokeColor=inherit;fillColor=#A7C942;align=center;fontStyle=1;fontColor=#FFFFFF;html=1;" vertex="1" parent="231">
                    <mxGeometry x="87" width="85" height="20" as="geometry">
                        <mxRectangle width="85" height="20" as="alternateBounds"/>
                    </mxGeometry>
                </mxCell>
                <mxCell id="234" value="flow" style="connectable=0;recursiveResize=0;strokeColor=inherit;fillColor=#A7C942;align=center;fontStyle=1;fontColor=#FFFFFF;html=1;" vertex="1" parent="231">
                    <mxGeometry x="172" width="108" height="20" as="geometry">
                        <mxRectangle width="108" height="20" as="alternateBounds"/>
                    </mxGeometry>
                </mxCell>
                <mxCell id="235" value="" style="shape=tableRow;horizontal=0;startSize=0;swimlaneHead=0;swimlaneBody=0;top=0;left=0;bottom=0;right=0;dropTarget=0;collapsible=0;recursiveResize=0;expand=0;fontStyle=0;strokeColor=inherit;fillColor=#ffffff;" vertex="1" parent="230">
                    <mxGeometry y="20" width="280" height="20" as="geometry"/>
                </mxCell>
                <mxCell id="236" value="S.young" style="connectable=0;recursiveResize=0;strokeColor=inherit;fillColor=inherit;align=center;whiteSpace=wrap;html=1;" vertex="1" parent="235">
                    <mxGeometry width="87" height="20" as="geometry">
                        <mxRectangle width="87" height="20" as="alternateBounds"/>
                    </mxGeometry>
                </mxCell>
                <mxCell id="237" value="I.young" style="connectable=0;recursiveResize=0;strokeColor=inherit;fillColor=inherit;align=center;whiteSpace=wrap;html=1;" vertex="1" parent="235">
                    <mxGeometry x="87" width="85" height="20" as="geometry">
                        <mxRectangle width="85" height="20" as="alternateBounds"/>
                    </mxGeometry>
                </mxCell>
                <mxCell id="238" value="infection.young" style="connectable=0;recursiveResize=0;strokeColor=inherit;fillColor=inherit;align=center;whiteSpace=wrap;html=1;" vertex="1" parent="235">
                    <mxGeometry x="172" width="108" height="20" as="geometry">
                        <mxRectangle width="108" height="20" as="alternateBounds"/>
                    </mxGeometry>
                </mxCell>
                <mxCell id="239" value="" style="shape=tableRow;horizontal=0;startSize=0;swimlaneHead=0;swimlaneBody=0;top=0;left=0;bottom=0;right=0;dropTarget=0;collapsible=0;recursiveResize=0;expand=0;fontStyle=1;strokeColor=inherit;fillColor=#EAF2D3;" vertex="1" parent="230">
                    <mxGeometry y="40" width="280" height="23" as="geometry"/>
                </mxCell>
                <mxCell id="240" value="S.old" style="connectable=0;recursiveResize=0;strokeColor=inherit;fillColor=inherit;whiteSpace=wrap;html=1;" vertex="1" parent="239">
                    <mxGeometry width="87" height="23" as="geometry">
                        <mxRectangle width="87" height="23" as="alternateBounds"/>
                    </mxGeometry>
                </mxCell>
                <mxCell id="241" value="I.old" style="connectable=0;recursiveResize=0;strokeColor=inherit;fillColor=inherit;whiteSpace=wrap;html=1;" vertex="1" parent="239">
                    <mxGeometry x="87" width="85" height="23" as="geometry">
                        <mxRectangle width="85" height="23" as="alternateBounds"/>
                    </mxGeometry>
                </mxCell>
                <mxCell id="242" value="infection.old" style="connectable=0;recursiveResize=0;strokeColor=inherit;fillColor=inherit;whiteSpace=wrap;html=1;" vertex="1" parent="239">
                    <mxGeometry x="172" width="108" height="23" as="geometry">
                        <mxRectangle width="108" height="23" as="alternateBounds"/>
                    </mxGeometry>
                </mxCell>
                <mxCell id="243" value="Assets" style="childLayout=tableLayout;recursiveResize=0;strokeColor=#98bf21;fillColor=#A7C942;shadow=0;rounded=0;glass=0;" vertex="1" parent="1">
                    <mxGeometry x="42" y="1070" width="150" height="166" as="geometry"/>
                </mxCell>
                <mxCell id="244" style="shape=tableRow;horizontal=0;startSize=0;swimlaneHead=0;swimlaneBody=0;top=0;left=0;bottom=0;right=0;dropTarget=0;collapsible=0;recursiveResize=0;expand=0;fontStyle=0;strokeColor=inherit;fillColor=#ffffff;" vertex="1" parent="243">
                    <mxGeometry width="150" height="20" as="geometry"/>
                </mxCell>
                <mxCell id="245" value="Epi" style="connectable=0;recursiveResize=0;strokeColor=inherit;fillColor=#A7C942;align=center;fontStyle=1;fontColor=#FFFFFF;html=1;" vertex="1" parent="244">
                    <mxGeometry width="75" height="20" as="geometry">
                        <mxRectangle width="75" height="20" as="alternateBounds"/>
                    </mxGeometry>
                </mxCell>
                <mxCell id="246" value="Vax" style="connectable=0;recursiveResize=0;strokeColor=inherit;fillColor=#A7C942;align=center;fontStyle=1;fontColor=#FFFFFF;html=1;" vertex="1" parent="244">
                    <mxGeometry x="75" width="75" height="20" as="geometry">
                        <mxRectangle width="75" height="20" as="alternateBounds"/>
                    </mxGeometry>
                </mxCell>
                <mxCell id="247" value="" style="shape=tableRow;horizontal=0;startSize=0;swimlaneHead=0;swimlaneBody=0;top=0;left=0;bottom=0;right=0;dropTarget=0;collapsible=0;recursiveResize=0;expand=0;fontStyle=0;strokeColor=inherit;fillColor=#ffffff;" vertex="1" parent="243">
                    <mxGeometry y="20" width="150" height="20" as="geometry"/>
                </mxCell>
                <mxCell id="248" value="S" style="connectable=0;recursiveResize=0;strokeColor=inherit;fillColor=inherit;align=center;whiteSpace=wrap;html=1;" vertex="1" parent="247">
                    <mxGeometry width="75" height="20" as="geometry">
                        <mxRectangle width="75" height="20" as="alternateBounds"/>
                    </mxGeometry>
                </mxCell>
                <mxCell id="249" value="unvax" style="connectable=0;recursiveResize=0;strokeColor=inherit;fillColor=inherit;align=center;whiteSpace=wrap;html=1;" vertex="1" parent="247">
                    <mxGeometry x="75" width="75" height="20" as="geometry">
                        <mxRectangle width="75" height="20" as="alternateBounds"/>
                    </mxGeometry>
                </mxCell>
                <mxCell id="250" value="" style="shape=tableRow;horizontal=0;startSize=0;swimlaneHead=0;swimlaneBody=0;top=0;left=0;bottom=0;right=0;dropTarget=0;collapsible=0;recursiveResize=0;expand=0;fontStyle=1;strokeColor=inherit;fillColor=#EAF2D3;" vertex="1" parent="243">
                    <mxGeometry y="40" width="150" height="23" as="geometry"/>
                </mxCell>
                <mxCell id="251" value="I" style="connectable=0;recursiveResize=0;strokeColor=inherit;fillColor=inherit;whiteSpace=wrap;html=1;" vertex="1" parent="250">
                    <mxGeometry width="75" height="23" as="geometry">
                        <mxRectangle width="75" height="23" as="alternateBounds"/>
                    </mxGeometry>
                </mxCell>
                <mxCell id="252" value="unvax" style="connectable=0;recursiveResize=0;strokeColor=inherit;fillColor=inherit;whiteSpace=wrap;html=1;" vertex="1" parent="250">
                    <mxGeometry x="75" width="75" height="23" as="geometry">
                        <mxRectangle width="75" height="23" as="alternateBounds"/>
                    </mxGeometry>
                </mxCell>
                <mxCell id="253" value="" style="shape=tableRow;horizontal=0;startSize=0;swimlaneHead=0;swimlaneBody=0;top=0;left=0;bottom=0;right=0;dropTarget=0;collapsible=0;recursiveResize=0;expand=0;fontStyle=0;strokeColor=inherit;fillColor=#ffffff;" vertex="1" parent="243">
                    <mxGeometry y="63" width="150" height="20" as="geometry"/>
                </mxCell>
                <mxCell id="254" value="infection" style="connectable=0;recursiveResize=0;strokeColor=inherit;fillColor=inherit;fontStyle=0;align=center;whiteSpace=wrap;html=1;" vertex="1" parent="253">
                    <mxGeometry width="75" height="20" as="geometry">
                        <mxRectangle width="75" height="20" as="alternateBounds"/>
                    </mxGeometry>
                </mxCell>
                <mxCell id="255" value="unvax" style="connectable=0;recursiveResize=0;strokeColor=inherit;fillColor=inherit;fontStyle=0;align=center;whiteSpace=wrap;html=1;" vertex="1" parent="253">
                    <mxGeometry x="75" width="75" height="20" as="geometry">
                        <mxRectangle width="75" height="20" as="alternateBounds"/>
                    </mxGeometry>
                </mxCell>
                <mxCell id="256" style="shape=tableRow;horizontal=0;startSize=0;swimlaneHead=0;swimlaneBody=0;top=0;left=0;bottom=0;right=0;dropTarget=0;collapsible=0;recursiveResize=0;expand=0;fontStyle=1;strokeColor=inherit;fillColor=#EAF2D3;" vertex="1" parent="243">
                    <mxGeometry y="83" width="150" height="23" as="geometry"/>
                </mxCell>
                <mxCell id="257" value="S" style="connectable=0;recursiveResize=0;strokeColor=inherit;fillColor=inherit;whiteSpace=wrap;html=1;" vertex="1" parent="256">
                    <mxGeometry width="75" height="23" as="geometry">
                        <mxRectangle width="75" height="23" as="alternateBounds"/>
                    </mxGeometry>
                </mxCell>
                <mxCell id="258" value="vax" style="connectable=0;recursiveResize=0;strokeColor=inherit;fillColor=inherit;whiteSpace=wrap;html=1;" vertex="1" parent="256">
                    <mxGeometry x="75" width="75" height="23" as="geometry">
                        <mxRectangle width="75" height="23" as="alternateBounds"/>
                    </mxGeometry>
                </mxCell>
                <mxCell id="259" style="shape=tableRow;horizontal=0;startSize=0;swimlaneHead=0;swimlaneBody=0;top=0;left=0;bottom=0;right=0;dropTarget=0;collapsible=0;recursiveResize=0;expand=0;fontStyle=0;strokeColor=inherit;fillColor=#ffffff;" vertex="1" parent="243">
                    <mxGeometry y="106" width="150" height="20" as="geometry"/>
                </mxCell>
                <mxCell id="260" value="I" style="connectable=0;recursiveResize=0;strokeColor=inherit;fillColor=inherit;fontStyle=0;align=center;whiteSpace=wrap;html=1;" vertex="1" parent="259">
                    <mxGeometry width="75" height="20" as="geometry">
                        <mxRectangle width="75" height="20" as="alternateBounds"/>
                    </mxGeometry>
                </mxCell>
                <mxCell id="261" value="vax" style="connectable=0;recursiveResize=0;strokeColor=inherit;fillColor=inherit;fontStyle=0;align=center;whiteSpace=wrap;html=1;" vertex="1" parent="259">
                    <mxGeometry x="75" width="75" height="20" as="geometry">
                        <mxRectangle width="75" height="20" as="alternateBounds"/>
                    </mxGeometry>
                </mxCell>
                <mxCell id="262" value="" style="shape=tableRow;horizontal=0;startSize=0;swimlaneHead=0;swimlaneBody=0;top=0;left=0;bottom=0;right=0;dropTarget=0;collapsible=0;recursiveResize=0;expand=0;fontStyle=1;strokeColor=inherit;fillColor=#EAF2D3;" vertex="1" parent="243">
                    <mxGeometry y="126" width="150" height="20" as="geometry"/>
                </mxCell>
                <mxCell id="263" value="infection" style="connectable=0;recursiveResize=0;strokeColor=inherit;fillColor=inherit;whiteSpace=wrap;html=1;" vertex="1" parent="262">
                    <mxGeometry width="75" height="20" as="geometry">
                        <mxRectangle width="75" height="20" as="alternateBounds"/>
                    </mxGeometry>
                </mxCell>
                <mxCell id="264" value="vax" style="connectable=0;recursiveResize=0;strokeColor=inherit;fillColor=inherit;whiteSpace=wrap;html=1;" vertex="1" parent="262">
                    <mxGeometry x="75" width="75" height="20" as="geometry">
                        <mxRectangle width="75" height="20" as="alternateBounds"/>
                    </mxGeometry>
                </mxCell>
                <mxCell id="346" style="shape=tableRow;horizontal=0;startSize=0;swimlaneHead=0;swimlaneBody=0;top=0;left=0;bottom=0;right=0;dropTarget=0;collapsible=0;recursiveResize=0;expand=0;fontStyle=0;strokeColor=inherit;fillColor=#ffffff;" vertex="1" parent="243">
                    <mxGeometry y="146" width="150" height="20" as="geometry"/>
                </mxCell>
                <mxCell id="347" style="connectable=0;recursiveResize=0;strokeColor=inherit;fillColor=inherit;fontStyle=0;align=center;whiteSpace=wrap;html=1;" vertex="1" parent="346">
                    <mxGeometry width="75" height="20" as="geometry">
                        <mxRectangle width="75" height="20" as="alternateBounds"/>
                    </mxGeometry>
                </mxCell>
                <mxCell id="348" value="vaccination" style="connectable=0;recursiveResize=0;strokeColor=inherit;fillColor=inherit;fontStyle=0;align=center;whiteSpace=wrap;html=1;" vertex="1" parent="346">
                    <mxGeometry x="75" width="75" height="20" as="geometry">
                        <mxRectangle width="75" height="20" as="alternateBounds"/>
                    </mxGeometry>
                </mxCell>
                <mxCell id="284" value="Assets" style="childLayout=tableLayout;recursiveResize=0;strokeColor=#98bf21;fillColor=#A7C942;shadow=0;rounded=0;glass=0;" vertex="1" parent="1">
                    <mxGeometry x="30" y="1346" width="120" height="63" as="geometry"/>
                </mxCell>
                <mxCell id="285" style="shape=tableRow;horizontal=0;startSize=0;swimlaneHead=0;swimlaneBody=0;top=0;left=0;bottom=0;right=0;dropTarget=0;collapsible=0;recursiveResize=0;expand=0;fontStyle=0;strokeColor=inherit;fillColor=#ffffff;" vertex="1" parent="284">
                    <mxGeometry width="120" height="20" as="geometry"/>
                </mxCell>
                <mxCell id="286" value="Epi" style="connectable=0;recursiveResize=0;strokeColor=inherit;fillColor=#A7C942;align=center;fontStyle=1;fontColor=#FFFFFF;html=1;" vertex="1" parent="285">
                    <mxGeometry width="60" height="20" as="geometry">
                        <mxRectangle width="60" height="20" as="alternateBounds"/>
                    </mxGeometry>
                </mxCell>
                <mxCell id="287" value="Age" style="connectable=0;recursiveResize=0;strokeColor=inherit;fillColor=#A7C942;align=center;fontStyle=1;fontColor=#FFFFFF;html=1;" vertex="1" parent="285">
                    <mxGeometry x="60" width="60" height="20" as="geometry">
                        <mxRectangle width="60" height="20" as="alternateBounds"/>
                    </mxGeometry>
                </mxCell>
                <mxCell id="288" value="" style="shape=tableRow;horizontal=0;startSize=0;swimlaneHead=0;swimlaneBody=0;top=0;left=0;bottom=0;right=0;dropTarget=0;collapsible=0;recursiveResize=0;expand=0;fontStyle=0;strokeColor=inherit;fillColor=#ffffff;" vertex="1" parent="284">
                    <mxGeometry y="20" width="120" height="20" as="geometry"/>
                </mxCell>
                <mxCell id="289" value="S" style="connectable=0;recursiveResize=0;strokeColor=inherit;fillColor=inherit;align=center;whiteSpace=wrap;html=1;" vertex="1" parent="288">
                    <mxGeometry width="60" height="20" as="geometry">
                        <mxRectangle width="60" height="20" as="alternateBounds"/>
                    </mxGeometry>
                </mxCell>
                <mxCell id="290" value="young" style="connectable=0;recursiveResize=0;strokeColor=inherit;fillColor=inherit;align=center;whiteSpace=wrap;html=1;" vertex="1" parent="288">
                    <mxGeometry x="60" width="60" height="20" as="geometry">
                        <mxRectangle width="60" height="20" as="alternateBounds"/>
                    </mxGeometry>
                </mxCell>
                <mxCell id="291" value="" style="shape=tableRow;horizontal=0;startSize=0;swimlaneHead=0;swimlaneBody=0;top=0;left=0;bottom=0;right=0;dropTarget=0;collapsible=0;recursiveResize=0;expand=0;fontStyle=1;strokeColor=inherit;fillColor=#EAF2D3;" vertex="1" parent="284">
                    <mxGeometry y="40" width="120" height="23" as="geometry"/>
                </mxCell>
                <mxCell id="292" value="S" style="connectable=0;recursiveResize=0;strokeColor=inherit;fillColor=inherit;whiteSpace=wrap;html=1;" vertex="1" parent="291">
                    <mxGeometry width="60" height="23" as="geometry">
                        <mxRectangle width="60" height="23" as="alternateBounds"/>
                    </mxGeometry>
                </mxCell>
                <mxCell id="293" value="old" style="connectable=0;recursiveResize=0;strokeColor=inherit;fillColor=inherit;whiteSpace=wrap;html=1;" vertex="1" parent="291">
                    <mxGeometry x="60" width="60" height="23" as="geometry">
                        <mxRectangle width="60" height="23" as="alternateBounds"/>
                    </mxGeometry>
                </mxCell>
                <mxCell id="294" value="Assets" style="childLayout=tableLayout;recursiveResize=0;strokeColor=#98bf21;fillColor=#A7C942;shadow=0;rounded=0;glass=0;" vertex="1" parent="1">
                    <mxGeometry x="190" y="1346" width="120" height="63" as="geometry"/>
                </mxCell>
                <mxCell id="295" style="shape=tableRow;horizontal=0;startSize=0;swimlaneHead=0;swimlaneBody=0;top=0;left=0;bottom=0;right=0;dropTarget=0;collapsible=0;recursiveResize=0;expand=0;fontStyle=0;strokeColor=inherit;fillColor=#ffffff;" vertex="1" parent="294">
                    <mxGeometry width="120" height="20" as="geometry"/>
                </mxCell>
                <mxCell id="296" value="Epi" style="connectable=0;recursiveResize=0;strokeColor=inherit;fillColor=#A7C942;align=center;fontStyle=1;fontColor=#FFFFFF;html=1;" vertex="1" parent="295">
                    <mxGeometry width="60" height="20" as="geometry">
                        <mxRectangle width="60" height="20" as="alternateBounds"/>
                    </mxGeometry>
                </mxCell>
                <mxCell id="297" value="Age" style="connectable=0;recursiveResize=0;strokeColor=inherit;fillColor=#A7C942;align=center;fontStyle=1;fontColor=#FFFFFF;html=1;" vertex="1" parent="295">
                    <mxGeometry x="60" width="60" height="20" as="geometry">
                        <mxRectangle width="60" height="20" as="alternateBounds"/>
                    </mxGeometry>
                </mxCell>
                <mxCell id="298" value="" style="shape=tableRow;horizontal=0;startSize=0;swimlaneHead=0;swimlaneBody=0;top=0;left=0;bottom=0;right=0;dropTarget=0;collapsible=0;recursiveResize=0;expand=0;fontStyle=0;strokeColor=inherit;fillColor=#ffffff;" vertex="1" parent="294">
                    <mxGeometry y="20" width="120" height="20" as="geometry"/>
                </mxCell>
                <mxCell id="299" value="I" style="connectable=0;recursiveResize=0;strokeColor=inherit;fillColor=inherit;align=center;whiteSpace=wrap;html=1;" vertex="1" parent="298">
                    <mxGeometry width="60" height="20" as="geometry">
                        <mxRectangle width="60" height="20" as="alternateBounds"/>
                    </mxGeometry>
                </mxCell>
                <mxCell id="300" value="young" style="connectable=0;recursiveResize=0;strokeColor=inherit;fillColor=inherit;align=center;whiteSpace=wrap;html=1;" vertex="1" parent="298">
                    <mxGeometry x="60" width="60" height="20" as="geometry">
                        <mxRectangle width="60" height="20" as="alternateBounds"/>
                    </mxGeometry>
                </mxCell>
                <mxCell id="301" value="" style="shape=tableRow;horizontal=0;startSize=0;swimlaneHead=0;swimlaneBody=0;top=0;left=0;bottom=0;right=0;dropTarget=0;collapsible=0;recursiveResize=0;expand=0;fontStyle=1;strokeColor=inherit;fillColor=#EAF2D3;" vertex="1" parent="294">
                    <mxGeometry y="40" width="120" height="23" as="geometry"/>
                </mxCell>
                <mxCell id="302" value="I" style="connectable=0;recursiveResize=0;strokeColor=inherit;fillColor=inherit;whiteSpace=wrap;html=1;" vertex="1" parent="301">
                    <mxGeometry width="60" height="23" as="geometry">
                        <mxRectangle width="60" height="23" as="alternateBounds"/>
                    </mxGeometry>
                </mxCell>
                <mxCell id="303" value="old" style="connectable=0;recursiveResize=0;strokeColor=inherit;fillColor=inherit;whiteSpace=wrap;html=1;" vertex="1" parent="301">
                    <mxGeometry x="60" width="60" height="23" as="geometry">
                        <mxRectangle width="60" height="23" as="alternateBounds"/>
                    </mxGeometry>
                </mxCell>
                <mxCell id="304" value="Assets" style="childLayout=tableLayout;recursiveResize=0;strokeColor=#98bf21;fillColor=#A7C942;shadow=0;rounded=0;glass=0;" vertex="1" parent="1">
                    <mxGeometry x="350" y="1346" width="120" height="63" as="geometry"/>
                </mxCell>
                <mxCell id="305" style="shape=tableRow;horizontal=0;startSize=0;swimlaneHead=0;swimlaneBody=0;top=0;left=0;bottom=0;right=0;dropTarget=0;collapsible=0;recursiveResize=0;expand=0;fontStyle=0;strokeColor=inherit;fillColor=#ffffff;" vertex="1" parent="304">
                    <mxGeometry width="120" height="20" as="geometry"/>
                </mxCell>
                <mxCell id="306" value="Epi" style="connectable=0;recursiveResize=0;strokeColor=inherit;fillColor=#A7C942;align=center;fontStyle=1;fontColor=#FFFFFF;html=1;" vertex="1" parent="305">
                    <mxGeometry width="60" height="20" as="geometry">
                        <mxRectangle width="60" height="20" as="alternateBounds"/>
                    </mxGeometry>
                </mxCell>
                <mxCell id="307" value="Age" style="connectable=0;recursiveResize=0;strokeColor=inherit;fillColor=#A7C942;align=center;fontStyle=1;fontColor=#FFFFFF;html=1;" vertex="1" parent="305">
                    <mxGeometry x="60" width="60" height="20" as="geometry">
                        <mxRectangle width="60" height="20" as="alternateBounds"/>
                    </mxGeometry>
                </mxCell>
                <mxCell id="308" value="" style="shape=tableRow;horizontal=0;startSize=0;swimlaneHead=0;swimlaneBody=0;top=0;left=0;bottom=0;right=0;dropTarget=0;collapsible=0;recursiveResize=0;expand=0;fontStyle=0;strokeColor=inherit;fillColor=#ffffff;" vertex="1" parent="304">
                    <mxGeometry y="20" width="120" height="20" as="geometry"/>
                </mxCell>
                <mxCell id="309" value="infection" style="connectable=0;recursiveResize=0;strokeColor=inherit;fillColor=inherit;align=center;whiteSpace=wrap;html=1;" vertex="1" parent="308">
                    <mxGeometry width="60" height="20" as="geometry">
                        <mxRectangle width="60" height="20" as="alternateBounds"/>
                    </mxGeometry>
                </mxCell>
                <mxCell id="310" value="young" style="connectable=0;recursiveResize=0;strokeColor=inherit;fillColor=inherit;align=center;whiteSpace=wrap;html=1;" vertex="1" parent="308">
                    <mxGeometry x="60" width="60" height="20" as="geometry">
                        <mxRectangle width="60" height="20" as="alternateBounds"/>
                    </mxGeometry>
                </mxCell>
                <mxCell id="311" value="" style="shape=tableRow;horizontal=0;startSize=0;swimlaneHead=0;swimlaneBody=0;top=0;left=0;bottom=0;right=0;dropTarget=0;collapsible=0;recursiveResize=0;expand=0;fontStyle=1;strokeColor=inherit;fillColor=#EAF2D3;" vertex="1" parent="304">
                    <mxGeometry y="40" width="120" height="23" as="geometry"/>
                </mxCell>
                <mxCell id="312" value="infection" style="connectable=0;recursiveResize=0;strokeColor=inherit;fillColor=inherit;whiteSpace=wrap;html=1;" vertex="1" parent="311">
                    <mxGeometry width="60" height="23" as="geometry">
                        <mxRectangle width="60" height="23" as="alternateBounds"/>
                    </mxGeometry>
                </mxCell>
                <mxCell id="313" value="old" style="connectable=0;recursiveResize=0;strokeColor=inherit;fillColor=inherit;whiteSpace=wrap;html=1;" vertex="1" parent="311">
                    <mxGeometry x="60" width="60" height="23" as="geometry">
                        <mxRectangle width="60" height="23" as="alternateBounds"/>
                    </mxGeometry>
                </mxCell>
                <mxCell id="314" value="Assets" style="childLayout=tableLayout;recursiveResize=0;strokeColor=#98bf21;fillColor=#A7C942;shadow=0;rounded=0;glass=0;" vertex="1" parent="1">
                    <mxGeometry x="30" y="1446" width="172" height="63" as="geometry"/>
                </mxCell>
                <mxCell id="315" style="shape=tableRow;horizontal=0;startSize=0;swimlaneHead=0;swimlaneBody=0;top=0;left=0;bottom=0;right=0;dropTarget=0;collapsible=0;recursiveResize=0;expand=0;fontStyle=0;strokeColor=inherit;fillColor=#ffffff;" vertex="1" parent="314">
                    <mxGeometry width="172" height="20" as="geometry"/>
                </mxCell>
                <mxCell id="316" value="from" style="connectable=0;recursiveResize=0;strokeColor=inherit;fillColor=#A7C942;align=center;fontStyle=1;fontColor=#FFFFFF;html=1;" vertex="1" parent="315">
                    <mxGeometry width="87" height="20" as="geometry">
                        <mxRectangle width="87" height="20" as="alternateBounds"/>
                    </mxGeometry>
                </mxCell>
                <mxCell id="317" value="to" style="connectable=0;recursiveResize=0;strokeColor=inherit;fillColor=#A7C942;align=center;fontStyle=1;fontColor=#FFFFFF;html=1;" vertex="1" parent="315">
                    <mxGeometry x="87" width="85" height="20" as="geometry">
                        <mxRectangle width="85" height="20" as="alternateBounds"/>
                    </mxGeometry>
                </mxCell>
                <mxCell id="318" value="" style="shape=tableRow;horizontal=0;startSize=0;swimlaneHead=0;swimlaneBody=0;top=0;left=0;bottom=0;right=0;dropTarget=0;collapsible=0;recursiveResize=0;expand=0;fontStyle=0;strokeColor=inherit;fillColor=#ffffff;" vertex="1" parent="314">
                    <mxGeometry y="20" width="172" height="20" as="geometry"/>
                </mxCell>
                <mxCell id="319" value="S.young" style="connectable=0;recursiveResize=0;strokeColor=inherit;fillColor=inherit;align=center;whiteSpace=wrap;html=1;" vertex="1" parent="318">
                    <mxGeometry width="87" height="20" as="geometry">
                        <mxRectangle width="87" height="20" as="alternateBounds"/>
                    </mxGeometry>
                </mxCell>
                <mxCell id="320" value="I.young" style="connectable=0;recursiveResize=0;strokeColor=inherit;fillColor=inherit;align=center;whiteSpace=wrap;html=1;" vertex="1" parent="318">
                    <mxGeometry x="87" width="85" height="20" as="geometry">
                        <mxRectangle width="85" height="20" as="alternateBounds"/>
                    </mxGeometry>
                </mxCell>
                <mxCell id="321" value="" style="shape=tableRow;horizontal=0;startSize=0;swimlaneHead=0;swimlaneBody=0;top=0;left=0;bottom=0;right=0;dropTarget=0;collapsible=0;recursiveResize=0;expand=0;fontStyle=1;strokeColor=inherit;fillColor=#EAF2D3;" vertex="1" parent="314">
                    <mxGeometry y="40" width="172" height="23" as="geometry"/>
                </mxCell>
                <mxCell id="322" value="S.old" style="connectable=0;recursiveResize=0;strokeColor=inherit;fillColor=inherit;whiteSpace=wrap;html=1;" vertex="1" parent="321">
                    <mxGeometry width="87" height="23" as="geometry">
                        <mxRectangle width="87" height="23" as="alternateBounds"/>
                    </mxGeometry>
                </mxCell>
                <mxCell id="323" value="I.old" style="connectable=0;recursiveResize=0;strokeColor=inherit;fillColor=inherit;whiteSpace=wrap;html=1;" vertex="1" parent="321">
                    <mxGeometry x="87" width="85" height="23" as="geometry">
                        <mxRectangle width="85" height="23" as="alternateBounds"/>
                    </mxGeometry>
                </mxCell>
                <mxCell id="324" value="Assets" style="childLayout=tableLayout;recursiveResize=0;strokeColor=#98bf21;fillColor=#A7C942;shadow=0;rounded=0;glass=0;" vertex="1" parent="1">
                    <mxGeometry x="30" y="1566" width="280" height="63" as="geometry"/>
                </mxCell>
                <mxCell id="325" style="shape=tableRow;horizontal=0;startSize=0;swimlaneHead=0;swimlaneBody=0;top=0;left=0;bottom=0;right=0;dropTarget=0;collapsible=0;recursiveResize=0;expand=0;fontStyle=0;strokeColor=inherit;fillColor=#ffffff;" vertex="1" parent="324">
                    <mxGeometry width="280" height="20" as="geometry"/>
                </mxCell>
                <mxCell id="326" value="from" style="connectable=0;recursiveResize=0;strokeColor=inherit;fillColor=#A7C942;align=center;fontStyle=1;fontColor=#FFFFFF;html=1;" vertex="1" parent="325">
                    <mxGeometry width="87" height="20" as="geometry">
                        <mxRectangle width="87" height="20" as="alternateBounds"/>
                    </mxGeometry>
                </mxCell>
                <mxCell id="327" value="to" style="connectable=0;recursiveResize=0;strokeColor=inherit;fillColor=#A7C942;align=center;fontStyle=1;fontColor=#FFFFFF;html=1;" vertex="1" parent="325">
                    <mxGeometry x="87" width="85" height="20" as="geometry">
                        <mxRectangle width="85" height="20" as="alternateBounds"/>
                    </mxGeometry>
                </mxCell>
                <mxCell id="328" value="flow" style="connectable=0;recursiveResize=0;strokeColor=inherit;fillColor=#A7C942;align=center;fontStyle=1;fontColor=#FFFFFF;html=1;" vertex="1" parent="325">
                    <mxGeometry x="172" width="108" height="20" as="geometry">
                        <mxRectangle width="108" height="20" as="alternateBounds"/>
                    </mxGeometry>
                </mxCell>
                <mxCell id="329" value="" style="shape=tableRow;horizontal=0;startSize=0;swimlaneHead=0;swimlaneBody=0;top=0;left=0;bottom=0;right=0;dropTarget=0;collapsible=0;recursiveResize=0;expand=0;fontStyle=0;strokeColor=inherit;fillColor=#ffffff;" vertex="1" parent="324">
                    <mxGeometry y="20" width="280" height="20" as="geometry"/>
                </mxCell>
                <mxCell id="330" value="S.young" style="connectable=0;recursiveResize=0;strokeColor=inherit;fillColor=inherit;align=center;whiteSpace=wrap;html=1;" vertex="1" parent="329">
                    <mxGeometry width="87" height="20" as="geometry">
                        <mxRectangle width="87" height="20" as="alternateBounds"/>
                    </mxGeometry>
                </mxCell>
                <mxCell id="331" value="I.young" style="connectable=0;recursiveResize=0;strokeColor=inherit;fillColor=inherit;align=center;whiteSpace=wrap;html=1;" vertex="1" parent="329">
                    <mxGeometry x="87" width="85" height="20" as="geometry">
                        <mxRectangle width="85" height="20" as="alternateBounds"/>
                    </mxGeometry>
                </mxCell>
                <mxCell id="332" value="infection.young" style="connectable=0;recursiveResize=0;strokeColor=inherit;fillColor=inherit;align=center;whiteSpace=wrap;html=1;" vertex="1" parent="329">
                    <mxGeometry x="172" width="108" height="20" as="geometry">
                        <mxRectangle width="108" height="20" as="alternateBounds"/>
                    </mxGeometry>
                </mxCell>
                <mxCell id="333" value="" style="shape=tableRow;horizontal=0;startSize=0;swimlaneHead=0;swimlaneBody=0;top=0;left=0;bottom=0;right=0;dropTarget=0;collapsible=0;recursiveResize=0;expand=0;fontStyle=1;strokeColor=inherit;fillColor=#EAF2D3;" vertex="1" parent="324">
                    <mxGeometry y="40" width="280" height="23" as="geometry"/>
                </mxCell>
                <mxCell id="334" value="S.old" style="connectable=0;recursiveResize=0;strokeColor=inherit;fillColor=inherit;whiteSpace=wrap;html=1;" vertex="1" parent="333">
                    <mxGeometry width="87" height="23" as="geometry">
                        <mxRectangle width="87" height="23" as="alternateBounds"/>
                    </mxGeometry>
                </mxCell>
                <mxCell id="335" value="I.old" style="connectable=0;recursiveResize=0;strokeColor=inherit;fillColor=inherit;whiteSpace=wrap;html=1;" vertex="1" parent="333">
                    <mxGeometry x="87" width="85" height="23" as="geometry">
                        <mxRectangle width="85" height="23" as="alternateBounds"/>
                    </mxGeometry>
                </mxCell>
                <mxCell id="336" value="infection.old" style="connectable=0;recursiveResize=0;strokeColor=inherit;fillColor=inherit;whiteSpace=wrap;html=1;" vertex="1" parent="333">
                    <mxGeometry x="172" width="108" height="23" as="geometry">
                        <mxRectangle width="108" height="23" as="alternateBounds"/>
                    </mxGeometry>
                </mxCell>
                <mxCell id="374" value="Assets" style="childLayout=tableLayout;recursiveResize=0;strokeColor=#98bf21;fillColor=#A7C942;shadow=0;rounded=0;glass=0;" vertex="1" parent="1">
                    <mxGeometry x="32" y="1276" width="580" height="60" as="geometry"/>
                </mxCell>
                <mxCell id="375" style="shape=tableRow;horizontal=0;startSize=0;swimlaneHead=0;swimlaneBody=0;top=0;left=0;bottom=0;right=0;dropTarget=0;collapsible=0;recursiveResize=0;expand=0;fontStyle=0;strokeColor=inherit;fillColor=#ffffff;" vertex="1" parent="374">
                    <mxGeometry width="580" height="20" as="geometry"/>
                </mxCell>
                <mxCell id="376" value="from" style="connectable=0;recursiveResize=0;strokeColor=inherit;fillColor=#A7C942;align=center;fontStyle=1;fontColor=#FFFFFF;html=1;" vertex="1" parent="375">
                    <mxGeometry width="50" height="20" as="geometry">
                        <mxRectangle width="50" height="20" as="alternateBounds"/>
                    </mxGeometry>
                </mxCell>
                <mxCell id="377" value="to" style="connectable=0;recursiveResize=0;strokeColor=inherit;fillColor=#A7C942;align=center;fontStyle=1;fontColor=#FFFFFF;html=1;" vertex="1" parent="375">
                    <mxGeometry x="50" width="51" height="20" as="geometry">
                        <mxRectangle width="51" height="20" as="alternateBounds"/>
                    </mxGeometry>
                </mxCell>
                <mxCell id="378" value="flow" style="connectable=0;recursiveResize=0;strokeColor=inherit;fillColor=#A7C942;align=center;fontStyle=1;fontColor=#FFFFFF;html=1;" vertex="1" parent="375">
                    <mxGeometry x="101" width="79" height="20" as="geometry">
                        <mxRectangle width="79" height="20" as="alternateBounds"/>
                    </mxGeometry>
                </mxCell>
                <mxCell id="379" value="from_filter" style="connectable=0;recursiveResize=0;strokeColor=inherit;fillColor=#A7C942;align=center;fontStyle=1;fontColor=#FFFFFF;html=1;" vertex="1" parent="375">
                    <mxGeometry x="180" width="70" height="20" as="geometry">
                        <mxRectangle width="70" height="20" as="alternateBounds"/>
                    </mxGeometry>
                </mxCell>
                <mxCell id="380" value="to_filter" style="connectable=0;recursiveResize=0;strokeColor=inherit;fillColor=#A7C942;align=center;fontStyle=1;fontColor=#FFFFFF;html=1;" vertex="1" parent="375">
                    <mxGeometry x="250" width="70" height="20" as="geometry">
                        <mxRectangle width="70" height="20" as="alternateBounds"/>
                    </mxGeometry>
                </mxCell>
                <mxCell id="381" value="flow_filter" style="connectable=0;recursiveResize=0;strokeColor=inherit;fillColor=#A7C942;align=center;fontStyle=1;fontColor=#FFFFFF;html=1;" vertex="1" parent="375">
                    <mxGeometry x="320" width="80" height="20" as="geometry">
                        <mxRectangle width="80" height="20" as="alternateBounds"/>
                    </mxGeometry>
                </mxCell>
                <mxCell id="382" value="from_to_by" style="connectable=0;recursiveResize=0;strokeColor=inherit;fillColor=#A7C942;align=center;fontStyle=1;fontColor=#FFFFFF;html=1;" vertex="1" parent="375">
                    <mxGeometry x="400" width="90" height="20" as="geometry">
                        <mxRectangle width="90" height="20" as="alternateBounds"/>
                    </mxGeometry>
                </mxCell>
                <mxCell id="383" value="from_flow_by" style="connectable=0;recursiveResize=0;strokeColor=inherit;fillColor=#A7C942;align=center;fontStyle=1;fontColor=#FFFFFF;html=1;" vertex="1" parent="375">
                    <mxGeometry x="490" width="90" height="20" as="geometry">
                        <mxRectangle width="90" height="20" as="alternateBounds"/>
                    </mxGeometry>
                </mxCell>
                <mxCell id="384" value="" style="shape=tableRow;horizontal=0;startSize=0;swimlaneHead=0;swimlaneBody=0;top=0;left=0;bottom=0;right=0;dropTarget=0;collapsible=0;recursiveResize=0;expand=0;fontStyle=0;strokeColor=inherit;fillColor=#ffffff;" vertex="1" parent="374">
                    <mxGeometry y="20" width="580" height="20" as="geometry"/>
                </mxCell>
                <mxCell id="385" value="S" style="connectable=0;recursiveResize=0;strokeColor=inherit;fillColor=inherit;align=center;whiteSpace=wrap;html=1;" vertex="1" parent="384">
                    <mxGeometry width="50" height="20" as="geometry">
                        <mxRectangle width="50" height="20" as="alternateBounds"/>
                    </mxGeometry>
                </mxCell>
                <mxCell id="386" value="I" style="connectable=0;recursiveResize=0;strokeColor=inherit;fillColor=inherit;align=center;whiteSpace=wrap;html=1;" vertex="1" parent="384">
                    <mxGeometry x="50" width="51" height="20" as="geometry">
                        <mxRectangle width="51" height="20" as="alternateBounds"/>
                    </mxGeometry>
                </mxCell>
                <mxCell id="387" value="infection" style="connectable=0;recursiveResize=0;strokeColor=inherit;fillColor=inherit;align=center;whiteSpace=wrap;html=1;" vertex="1" parent="384">
                    <mxGeometry x="101" width="79" height="20" as="geometry">
                        <mxRectangle width="79" height="20" as="alternateBounds"/>
                    </mxGeometry>
                </mxCell>
                <mxCell id="388" value="Epi" style="connectable=0;recursiveResize=0;strokeColor=inherit;fillColor=inherit;align=center;whiteSpace=wrap;html=1;" vertex="1" parent="384">
                    <mxGeometry x="180" width="70" height="20" as="geometry">
                        <mxRectangle width="70" height="20" as="alternateBounds"/>
                    </mxGeometry>
                </mxCell>
                <mxCell id="389" value="Epi" style="connectable=0;recursiveResize=0;strokeColor=inherit;fillColor=inherit;align=center;whiteSpace=wrap;html=1;" vertex="1" parent="384">
                    <mxGeometry x="250" width="70" height="20" as="geometry">
                        <mxRectangle width="70" height="20" as="alternateBounds"/>
                    </mxGeometry>
                </mxCell>
                <mxCell id="390" value="Epi" style="connectable=0;recursiveResize=0;strokeColor=inherit;fillColor=inherit;align=center;whiteSpace=wrap;html=1;" vertex="1" parent="384">
                    <mxGeometry x="320" width="80" height="20" as="geometry">
                        <mxRectangle width="80" height="20" as="alternateBounds"/>
                    </mxGeometry>
                </mxCell>
                <mxCell id="391" value="Vax" style="connectable=0;recursiveResize=0;strokeColor=inherit;fillColor=inherit;align=center;whiteSpace=wrap;html=1;" vertex="1" parent="384">
                    <mxGeometry x="400" width="90" height="20" as="geometry">
                        <mxRectangle width="90" height="20" as="alternateBounds"/>
                    </mxGeometry>
                </mxCell>
                <mxCell id="392" value="Vax" style="connectable=0;recursiveResize=0;strokeColor=inherit;fillColor=inherit;align=center;whiteSpace=wrap;html=1;" vertex="1" parent="384">
                    <mxGeometry x="490" width="90" height="20" as="geometry">
                        <mxRectangle width="90" height="20" as="alternateBounds"/>
                    </mxGeometry>
                </mxCell>
                <mxCell id="393" style="shape=tableRow;horizontal=0;startSize=0;swimlaneHead=0;swimlaneBody=0;top=0;left=0;bottom=0;right=0;dropTarget=0;collapsible=0;recursiveResize=0;expand=0;fontStyle=1;strokeColor=inherit;fillColor=#EAF2D3;" vertex="1" parent="374">
                    <mxGeometry y="40" width="580" height="20" as="geometry"/>
                </mxCell>
                <mxCell id="394" value="S.unvax" style="connectable=0;recursiveResize=0;strokeColor=inherit;fillColor=inherit;align=center;whiteSpace=wrap;html=1;" vertex="1" parent="393">
                    <mxGeometry width="50" height="20" as="geometry">
                        <mxRectangle width="50" height="20" as="alternateBounds"/>
                    </mxGeometry>
                </mxCell>
                <mxCell id="395" value="S.vax" style="connectable=0;recursiveResize=0;strokeColor=inherit;fillColor=inherit;align=center;whiteSpace=wrap;html=1;" vertex="1" parent="393">
                    <mxGeometry x="50" width="51" height="20" as="geometry">
                        <mxRectangle width="51" height="20" as="alternateBounds"/>
                    </mxGeometry>
                </mxCell>
                <mxCell id="396" value="vaccination" style="connectable=0;recursiveResize=0;strokeColor=inherit;fillColor=inherit;align=center;whiteSpace=wrap;html=1;" vertex="1" parent="393">
                    <mxGeometry x="101" width="79" height="20" as="geometry">
                        <mxRectangle width="79" height="20" as="alternateBounds"/>
                    </mxGeometry>
                </mxCell>
                <mxCell id="397" value="Epi.Vax" style="connectable=0;recursiveResize=0;strokeColor=inherit;fillColor=inherit;align=center;whiteSpace=wrap;html=1;" vertex="1" parent="393">
                    <mxGeometry x="180" width="70" height="20" as="geometry">
                        <mxRectangle width="70" height="20" as="alternateBounds"/>
                    </mxGeometry>
                </mxCell>
                <mxCell id="398" value="Epi.Vax" style="connectable=0;recursiveResize=0;strokeColor=inherit;fillColor=inherit;align=center;whiteSpace=wrap;html=1;" vertex="1" parent="393">
                    <mxGeometry x="250" width="70" height="20" as="geometry">
                        <mxRectangle width="70" height="20" as="alternateBounds"/>
                    </mxGeometry>
                </mxCell>
                <mxCell id="399" value="Vax" style="connectable=0;recursiveResize=0;strokeColor=inherit;fillColor=inherit;align=center;whiteSpace=wrap;html=1;" vertex="1" parent="393">
                    <mxGeometry x="320" width="80" height="20" as="geometry">
                        <mxRectangle width="80" height="20" as="alternateBounds"/>
                    </mxGeometry>
                </mxCell>
                <mxCell id="400" style="connectable=0;recursiveResize=0;strokeColor=inherit;fillColor=inherit;align=center;whiteSpace=wrap;html=1;" vertex="1" parent="393">
                    <mxGeometry x="400" width="90" height="20" as="geometry">
                        <mxRectangle width="90" height="20" as="alternateBounds"/>
                    </mxGeometry>
                </mxCell>
                <mxCell id="401" style="connectable=0;recursiveResize=0;strokeColor=inherit;fillColor=inherit;align=center;whiteSpace=wrap;html=1;" vertex="1" parent="393">
                    <mxGeometry x="490" width="90" height="20" as="geometry">
                        <mxRectangle width="90" height="20" as="alternateBounds"/>
                    </mxGeometry>
                </mxCell>
                <mxCell id="429" value="infection" style="edgeStyle=none;html=1;exitX=1;exitY=0.5;exitDx=0;exitDy=0;entryX=0;entryY=0.5;entryDx=0;entryDy=0;fillColor=#d5e8d4;strokeColor=#82b366;" edge="1" parent="1" source="427" target="428">
                    <mxGeometry relative="1" as="geometry"/>
                </mxCell>
                <mxCell id="427" value="S" style="rounded=0;whiteSpace=wrap;html=1;shadow=0;glass=0;sketch=0;fillColor=#d5e8d4;strokeColor=#82b366;" vertex="1" parent="1">
                    <mxGeometry x="40" y="-640" width="40" height="40" as="geometry"/>
                </mxCell>
                <mxCell id="428" value="I" style="rounded=0;whiteSpace=wrap;html=1;shadow=0;glass=0;sketch=0;fillColor=#d5e8d4;strokeColor=#82b366;" vertex="1" parent="1">
                    <mxGeometry x="160" y="-640" width="40" height="40" as="geometry"/>
                </mxCell>
                <mxCell id="430" value="infection.young" style="edgeStyle=none;html=1;exitX=1;exitY=0.5;exitDx=0;exitDy=0;entryX=0;entryY=0.5;entryDx=0;entryDy=0;fillColor=#d5e8d4;strokeColor=#82b366;" edge="1" parent="1" source="431" target="432">
                    <mxGeometry relative="1" as="geometry"/>
                </mxCell>
                <mxCell id="431" value="S.young" style="rounded=0;whiteSpace=wrap;html=1;shadow=0;glass=0;sketch=0;fillColor=#d5e8d4;strokeColor=#82b366;" vertex="1" parent="1">
                    <mxGeometry x="40" y="-120" width="60" height="40" as="geometry"/>
                </mxCell>
                <mxCell id="432" value="I.young" style="rounded=0;whiteSpace=wrap;html=1;shadow=0;glass=0;sketch=0;fillColor=#d5e8d4;strokeColor=#82b366;" vertex="1" parent="1">
                    <mxGeometry x="220" y="-120" width="60" height="40" as="geometry"/>
                </mxCell>
                <mxCell id="433" value="infection.old" style="edgeStyle=none;html=1;exitX=1;exitY=0.5;exitDx=0;exitDy=0;entryX=0;entryY=0.5;entryDx=0;entryDy=0;fillColor=#d5e8d4;strokeColor=#82b366;" edge="1" parent="1" source="434" target="435">
                    <mxGeometry relative="1" as="geometry"/>
                </mxCell>
                <mxCell id="434" value="S.old" style="rounded=0;whiteSpace=wrap;html=1;shadow=0;glass=0;sketch=0;fillColor=#d5e8d4;strokeColor=#82b366;" vertex="1" parent="1">
                    <mxGeometry x="40" y="-40" width="60" height="40" as="geometry"/>
                </mxCell>
                <mxCell id="435" value="I.old" style="rounded=0;whiteSpace=wrap;html=1;shadow=0;glass=0;sketch=0;fillColor=#d5e8d4;strokeColor=#82b366;" vertex="1" parent="1">
                    <mxGeometry x="220" y="-40" width="60" height="40" as="geometry"/>
                </mxCell>
                <mxCell id="436" value="Assets" style="childLayout=tableLayout;recursiveResize=0;strokeColor=#98bf21;fillColor=#A7C942;shadow=0;rounded=0;glass=0;" vertex="1" parent="1">
                    <mxGeometry x="40" y="-410" width="280" height="40" as="geometry"/>
                </mxCell>
                <mxCell id="437" style="shape=tableRow;horizontal=0;startSize=0;swimlaneHead=0;swimlaneBody=0;top=0;left=0;bottom=0;right=0;dropTarget=0;collapsible=0;recursiveResize=0;expand=0;fontStyle=0;strokeColor=inherit;fillColor=#ffffff;" vertex="1" parent="436">
                    <mxGeometry width="280" height="20" as="geometry"/>
                </mxCell>
                <mxCell id="438" value="from" style="connectable=0;recursiveResize=0;strokeColor=inherit;fillColor=#A7C942;align=center;fontStyle=1;fontColor=#FFFFFF;html=1;" vertex="1" parent="437">
                    <mxGeometry width="87" height="20" as="geometry">
                        <mxRectangle width="87" height="20" as="alternateBounds"/>
                    </mxGeometry>
                </mxCell>
                <mxCell id="439" value="to" style="connectable=0;recursiveResize=0;strokeColor=inherit;fillColor=#A7C942;align=center;fontStyle=1;fontColor=#FFFFFF;html=1;" vertex="1" parent="437">
                    <mxGeometry x="87" width="85" height="20" as="geometry">
                        <mxRectangle width="85" height="20" as="alternateBounds"/>
                    </mxGeometry>
                </mxCell>
                <mxCell id="440" value="flow" style="connectable=0;recursiveResize=0;strokeColor=inherit;fillColor=#A7C942;align=center;fontStyle=1;fontColor=#FFFFFF;html=1;" vertex="1" parent="437">
                    <mxGeometry x="172" width="108" height="20" as="geometry">
                        <mxRectangle width="108" height="20" as="alternateBounds"/>
                    </mxGeometry>
                </mxCell>
                <mxCell id="441" value="" style="shape=tableRow;horizontal=0;startSize=0;swimlaneHead=0;swimlaneBody=0;top=0;left=0;bottom=0;right=0;dropTarget=0;collapsible=0;recursiveResize=0;expand=0;fontStyle=0;strokeColor=inherit;fillColor=#ffffff;" vertex="1" parent="436">
                    <mxGeometry y="20" width="280" height="20" as="geometry"/>
                </mxCell>
                <mxCell id="442" value="S" style="connectable=0;recursiveResize=0;strokeColor=inherit;fillColor=inherit;align=center;whiteSpace=wrap;html=1;" vertex="1" parent="441">
                    <mxGeometry width="87" height="20" as="geometry">
                        <mxRectangle width="87" height="20" as="alternateBounds"/>
                    </mxGeometry>
                </mxCell>
                <mxCell id="443" value="I" style="connectable=0;recursiveResize=0;strokeColor=inherit;fillColor=inherit;align=center;whiteSpace=wrap;html=1;" vertex="1" parent="441">
                    <mxGeometry x="87" width="85" height="20" as="geometry">
                        <mxRectangle width="85" height="20" as="alternateBounds"/>
                    </mxGeometry>
                </mxCell>
                <mxCell id="444" value="infection" style="connectable=0;recursiveResize=0;strokeColor=inherit;fillColor=inherit;align=center;whiteSpace=wrap;html=1;" vertex="1" parent="441">
                    <mxGeometry x="172" width="108" height="20" as="geometry">
                        <mxRectangle width="108" height="20" as="alternateBounds"/>
                    </mxGeometry>
                </mxCell>
                <mxCell id="449" value="Assets" style="childLayout=tableLayout;recursiveResize=0;strokeColor=#98bf21;fillColor=#A7C942;shadow=0;rounded=0;glass=0;" vertex="1" parent="1">
                    <mxGeometry x="40" y="-550" width="60" height="83" as="geometry"/>
                </mxCell>
                <mxCell id="450" style="shape=tableRow;horizontal=0;startSize=0;swimlaneHead=0;swimlaneBody=0;top=0;left=0;bottom=0;right=0;dropTarget=0;collapsible=0;recursiveResize=0;expand=0;fontStyle=0;strokeColor=inherit;fillColor=#ffffff;" vertex="1" parent="449">
                    <mxGeometry width="60" height="20" as="geometry"/>
                </mxCell>
                <mxCell id="451" value="Epi" style="connectable=0;recursiveResize=0;strokeColor=inherit;fillColor=#A7C942;align=center;fontStyle=1;fontColor=#FFFFFF;html=1;" vertex="1" parent="450">
                    <mxGeometry width="60" height="20" as="geometry">
                        <mxRectangle width="60" height="20" as="alternateBounds"/>
                    </mxGeometry>
                </mxCell>
                <mxCell id="453" value="" style="shape=tableRow;horizontal=0;startSize=0;swimlaneHead=0;swimlaneBody=0;top=0;left=0;bottom=0;right=0;dropTarget=0;collapsible=0;recursiveResize=0;expand=0;fontStyle=0;strokeColor=inherit;fillColor=#ffffff;" vertex="1" parent="449">
                    <mxGeometry y="20" width="60" height="20" as="geometry"/>
                </mxCell>
                <mxCell id="454" value="S" style="connectable=0;recursiveResize=0;strokeColor=inherit;fillColor=inherit;align=center;whiteSpace=wrap;html=1;" vertex="1" parent="453">
                    <mxGeometry width="60" height="20" as="geometry">
                        <mxRectangle width="60" height="20" as="alternateBounds"/>
                    </mxGeometry>
                </mxCell>
                <mxCell id="456" value="" style="shape=tableRow;horizontal=0;startSize=0;swimlaneHead=0;swimlaneBody=0;top=0;left=0;bottom=0;right=0;dropTarget=0;collapsible=0;recursiveResize=0;expand=0;fontStyle=1;strokeColor=inherit;fillColor=#EAF2D3;" vertex="1" parent="449">
                    <mxGeometry y="40" width="60" height="23" as="geometry"/>
                </mxCell>
                <mxCell id="457" value="I" style="connectable=0;recursiveResize=0;strokeColor=inherit;fillColor=inherit;whiteSpace=wrap;html=1;" vertex="1" parent="456">
                    <mxGeometry width="60" height="23" as="geometry">
                        <mxRectangle width="60" height="23" as="alternateBounds"/>
                    </mxGeometry>
                </mxCell>
                <mxCell id="459" value="" style="shape=tableRow;horizontal=0;startSize=0;swimlaneHead=0;swimlaneBody=0;top=0;left=0;bottom=0;right=0;dropTarget=0;collapsible=0;recursiveResize=0;expand=0;fontStyle=0;strokeColor=inherit;fillColor=#ffffff;" vertex="1" parent="449">
                    <mxGeometry y="63" width="60" height="20" as="geometry"/>
                </mxCell>
                <mxCell id="460" value="infection" style="connectable=0;recursiveResize=0;strokeColor=inherit;fillColor=inherit;fontStyle=0;align=center;whiteSpace=wrap;html=1;" vertex="1" parent="459">
                    <mxGeometry width="60" height="20" as="geometry">
                        <mxRectangle width="60" height="20" as="alternateBounds"/>
                    </mxGeometry>
                </mxCell>
                <mxCell id="471" value="Unstructured Models" style="text;html=1;strokeColor=none;fillColor=none;align=left;verticalAlign=middle;whiteSpace=wrap;rounded=0;shadow=0;glass=0;sketch=0;fontSize=20;" vertex="1" parent="1">
                    <mxGeometry x="40" y="-715" width="240" height="30" as="geometry"/>
                </mxCell>
                <mxCell id="472" value="variables.csv" style="text;html=1;strokeColor=none;fillColor=none;align=left;verticalAlign=middle;whiteSpace=wrap;rounded=0;shadow=0;glass=0;sketch=0;fontSize=12;" vertex="1" parent="1">
                    <mxGeometry x="40" y="-580" width="60" height="30" as="geometry"/>
                </mxCell>
                <mxCell id="473" value="flows.csv" style="text;html=1;strokeColor=none;fillColor=none;align=left;verticalAlign=middle;whiteSpace=wrap;rounded=0;shadow=0;glass=0;sketch=0;fontSize=12;" vertex="1" parent="1">
                    <mxGeometry x="40" y="-440" width="60" height="30" as="geometry"/>
                </mxCell>
                <mxCell id="474" value="Structured Age Models" style="text;html=1;strokeColor=none;fillColor=none;align=left;verticalAlign=middle;whiteSpace=wrap;rounded=0;shadow=0;glass=0;sketch=0;fontSize=20;" vertex="1" parent="1">
                    <mxGeometry x="40" y="-200" width="240" height="30" as="geometry"/>
                </mxCell>
                <mxCell id="475" value="variables.csv" style="text;html=1;strokeColor=none;fillColor=none;align=left;verticalAlign=middle;whiteSpace=wrap;rounded=0;shadow=0;glass=0;sketch=0;fontSize=12;" vertex="1" parent="1">
                    <mxGeometry x="40" y="50" width="60" height="30" as="geometry"/>
                </mxCell>
                <mxCell id="476" value="flows.csv" style="text;html=1;strokeColor=none;fillColor=none;align=left;verticalAlign=middle;whiteSpace=wrap;rounded=0;shadow=0;glass=0;sketch=0;fontSize=12;" vertex="1" parent="1">
                    <mxGeometry x="40" y="250" width="60" height="30" as="geometry"/>
                </mxCell>
                <mxCell id="477" value="from variables" style="text;html=1;strokeColor=none;fillColor=none;align=left;verticalAlign=middle;whiteSpace=wrap;rounded=0;shadow=0;glass=0;sketch=0;fontSize=12;" vertex="1" parent="1">
                    <mxGeometry x="40" y="370" width="110" height="30" as="geometry"/>
                </mxCell>
                <mxCell id="478" value="to variables" style="text;html=1;strokeColor=none;fillColor=none;align=left;verticalAlign=middle;whiteSpace=wrap;rounded=0;shadow=0;glass=0;sketch=0;fontSize=12;" vertex="1" parent="1">
                    <mxGeometry x="200" y="370" width="110" height="30" as="geometry"/>
                </mxCell>
                <mxCell id="479" value="flow variables" style="text;html=1;strokeColor=none;fillColor=none;align=left;verticalAlign=middle;whiteSpace=wrap;rounded=0;shadow=0;glass=0;sketch=0;fontSize=12;" vertex="1" parent="1">
                    <mxGeometry x="360" y="370" width="110" height="30" as="geometry"/>
                </mxCell>
                <mxCell id="480" value="from-to expanded flows" style="text;html=1;strokeColor=none;fillColor=none;align=left;verticalAlign=middle;whiteSpace=wrap;rounded=0;shadow=0;glass=0;sketch=0;fontSize=12;" vertex="1" parent="1">
                    <mxGeometry x="42" y="490" width="170" height="30" as="geometry"/>
                </mxCell>
                <mxCell id="481" value="expanded flows" style="text;html=1;strokeColor=none;fillColor=none;align=left;verticalAlign=middle;whiteSpace=wrap;rounded=0;shadow=0;glass=0;sketch=0;fontSize=12;" vertex="1" parent="1">
                    <mxGeometry x="40" y="607" width="170" height="30" as="geometry"/>
                </mxCell>
                <mxCell id="504" value="&lt;pre style=&quot;background-color: rgb(255, 255, 255); line-height: 18px;&quot;&gt;&lt;div style=&quot;color: rgb(0, 0, 0); font-family: Menlo, Monaco, &amp;quot;Courier New&amp;quot;, monospace; font-size: 12px; font-weight: normal; text-align: justify;&quot;&gt;&lt;span style=&quot;color: #000000;&quot;&gt;S = S - S * infection&lt;/span&gt;&lt;/div&gt;&lt;div style=&quot;color: rgb(0, 0, 0); font-family: Menlo, Monaco, &amp;quot;Courier New&amp;quot;, monospace; font-size: 12px; font-weight: normal; text-align: justify;&quot;&gt;&lt;span style=&quot;color: #000000;&quot;&gt;I = I - S * infection&lt;/span&gt;&lt;/div&gt;&lt;div style=&quot;text-align: justify;&quot;&gt;&lt;font face=&quot;Menlo, Monaco, Courier New, monospace&quot;&gt;&lt;br&gt;&lt;/font&gt;&lt;/div&gt;&lt;/pre&gt;" style="text;whiteSpace=wrap;html=1;fontSize=12;fontFamily=Helvetica;fontColor=default;" vertex="1" parent="1">
                    <mxGeometry x="240" y="-660" width="190" height="60" as="geometry"/>
                </mxCell>
                <mxCell id="506" value="&lt;pre style=&quot;color: rgb(0, 0, 0); background-color: rgb(255, 255, 255); font-family: Menlo, Monaco, &amp;quot;Courier New&amp;quot;, monospace; font-weight: normal; font-size: 12px; line-height: 18px;&quot;&gt;&lt;div style=&quot;text-align: justify;&quot;&gt;&lt;span style=&quot;color: #000000;&quot;&gt;S.young = S.young - S.young * infection.young&lt;/span&gt;&lt;/div&gt;&lt;div style=&quot;text-align: justify;&quot;&gt;&lt;span style=&quot;color: #000000;&quot;&gt;I.young = I.young - S.young * infection.young&lt;/span&gt;&lt;/div&gt;&lt;div style=&quot;text-align: justify;&quot;&gt;&lt;span style=&quot;color: #000000;&quot;&gt;S.old   = S.old   - S.old   * infection.old&lt;/span&gt;&lt;/div&gt;&lt;div style=&quot;text-align: justify;&quot;&gt;&lt;span style=&quot;color: #000000;&quot;&gt;I.old   = I.old   - S.old   * infection.old&lt;/span&gt;&lt;/div&gt;&lt;/pre&gt;" style="text;whiteSpace=wrap;html=1;fontSize=12;fontFamily=Helvetica;fontColor=default;" vertex="1" parent="1">
                    <mxGeometry x="310" y="-110" width="360" height="100" as="geometry"/>
                </mxCell>
                <mxCell id="507" value="infection.unvax" style="edgeStyle=none;html=1;exitX=1;exitY=0.5;exitDx=0;exitDy=0;entryX=0;entryY=0.5;entryDx=0;entryDy=0;fillColor=#d5e8d4;strokeColor=#82b366;" edge="1" parent="1" source="508" target="509">
                    <mxGeometry relative="1" as="geometry"/>
                </mxCell>
                <mxCell id="514" value="vaccination" style="edgeStyle=none;html=1;exitX=0.5;exitY=1;exitDx=0;exitDy=0;entryX=0.5;entryY=0;entryDx=0;entryDy=0;fontFamily=Helvetica;fontSize=12;fontColor=default;" edge="1" parent="1" source="508" target="511">
                    <mxGeometry relative="1" as="geometry"/>
                </mxCell>
                <mxCell id="508" value="S.unvax" style="rounded=0;whiteSpace=wrap;html=1;shadow=0;glass=0;sketch=0;fillColor=#d5e8d4;strokeColor=#82b366;" vertex="1" parent="1">
                    <mxGeometry x="40" y="790" width="60" height="40" as="geometry"/>
                </mxCell>
                <mxCell id="509" value="I.unvax" style="rounded=0;whiteSpace=wrap;html=1;shadow=0;glass=0;sketch=0;fillColor=#d5e8d4;strokeColor=#82b366;" vertex="1" parent="1">
                    <mxGeometry x="220" y="790" width="60" height="40" as="geometry"/>
                </mxCell>
                <mxCell id="510" value="infection.vax" style="edgeStyle=none;html=1;exitX=1;exitY=0.5;exitDx=0;exitDy=0;entryX=0;entryY=0.5;entryDx=0;entryDy=0;fillColor=#d5e8d4;strokeColor=#82b366;" edge="1" parent="1" source="511" target="512">
                    <mxGeometry relative="1" as="geometry"/>
                </mxCell>
                <mxCell id="511" value="S.vax" style="rounded=0;whiteSpace=wrap;html=1;shadow=0;glass=0;sketch=0;fillColor=#d5e8d4;strokeColor=#82b366;" vertex="1" parent="1">
                    <mxGeometry x="40" y="870" width="60" height="40" as="geometry"/>
                </mxCell>
                <mxCell id="512" value="I.vax" style="rounded=0;whiteSpace=wrap;html=1;shadow=0;glass=0;sketch=0;fillColor=#d5e8d4;strokeColor=#82b366;" vertex="1" parent="1">
                    <mxGeometry x="220" y="870" width="60" height="40" as="geometry"/>
                </mxCell>
                <mxCell id="513" value="Structured Vaccination Models" style="text;html=1;strokeColor=none;fillColor=none;align=left;verticalAlign=middle;whiteSpace=wrap;rounded=0;shadow=0;glass=0;sketch=0;fontSize=20;" vertex="1" parent="1">
                    <mxGeometry x="40" y="740" width="310" height="30" as="geometry"/>
                </mxCell>
                <mxCell id="516" value="labels" style="text;html=1;strokeColor=none;fillColor=none;align=left;verticalAlign=middle;whiteSpace=wrap;rounded=0;shadow=0;glass=0;sketch=0;fontSize=12;" vertex="1" parent="1">
                    <mxGeometry x="240" y="50" width="60" height="30" as="geometry"/>
                </mxCell>
                <mxCell id="517" value="&lt;pre style=&quot;color: rgb(0, 0, 0); background-color: rgb(255, 255, 255); font-family: Menlo, Monaco, &amp;quot;Courier New&amp;quot;, monospace; font-weight: normal; font-size: 12px; line-height: 18px;&quot;&gt;&lt;div style=&quot;text-align: justify;&quot;&gt;&lt;span style=&quot;color: #000000;&quot;&gt;S.young&lt;/span&gt;&lt;/div&gt;&lt;div style=&quot;text-align: justify;&quot;&gt;&lt;span style=&quot;color: #000000;&quot;&gt;I.young&lt;/span&gt;&lt;/div&gt;&lt;div style=&quot;text-align: justify;&quot;&gt;&lt;span style=&quot;color: #000000;&quot;&gt;infection.young&lt;/span&gt;&lt;/div&gt;&lt;div style=&quot;text-align: justify;&quot;&gt;&lt;span style=&quot;color: #000000;&quot;&gt;S.old&lt;/span&gt;&lt;/div&gt;&lt;div style=&quot;text-align: justify;&quot;&gt;&lt;span style=&quot;color: #000000;&quot;&gt;I.old&lt;/span&gt;&lt;/div&gt;&lt;div style=&quot;text-align: justify;&quot;&gt;&lt;span style=&quot;color: #000000;&quot;&gt;infection.old&lt;/span&gt;&lt;/div&gt;&lt;/pre&gt;" style="text;whiteSpace=wrap;html=1;fontSize=12;fontFamily=Helvetica;fontColor=default;" vertex="1" parent="1">
                    <mxGeometry x="240" y="80" width="140" height="130" as="geometry"/>
                </mxCell>
                <mxCell id="518" value="&lt;pre style=&quot;background-color: rgb(255, 255, 255); line-height: 18px;&quot;&gt;&lt;div style=&quot;color: rgb(0, 0, 0); font-family: Menlo, Monaco, &amp;quot;Courier New&amp;quot;, monospace; font-size: 12px; font-weight: normal; text-align: justify;&quot;&gt;&lt;span style=&quot;color: #000000;&quot;&gt;S.unvax = S.unvax - S.unvax * infection.unvax - S.unvax * .vaccination&lt;/span&gt;&lt;/div&gt;&lt;div style=&quot;color: rgb(0, 0, 0); font-family: Menlo, Monaco, &amp;quot;Courier New&amp;quot;, monospace; font-size: 12px; font-weight: normal; text-align: justify;&quot;&gt;&lt;span style=&quot;color: #000000;&quot;&gt;I.unvax = I.unvax - S.unvax * infection.unvax&lt;/span&gt;&lt;/div&gt;&lt;div style=&quot;color: rgb(0, 0, 0); font-family: Menlo, Monaco, &amp;quot;Courier New&amp;quot;, monospace; font-size: 12px; font-weight: normal; text-align: justify;&quot;&gt;&lt;span style=&quot;color: #000000;&quot;&gt;S.vax   = S.vax   - S.vax   * infection.vax   + S.unvax * .vaccination&lt;/span&gt;&lt;/div&gt;&lt;div style=&quot;color: rgb(0, 0, 0); font-family: Menlo, Monaco, &amp;quot;Courier New&amp;quot;, monospace; font-size: 12px; font-weight: normal; text-align: justify;&quot;&gt;&lt;span style=&quot;color: #000000;&quot;&gt;I.vax   = I.vax   - S.vax   * infection.vax&lt;/span&gt;&lt;/div&gt;&lt;div style=&quot;text-align: justify;&quot;&gt;&lt;font face=&quot;Menlo, Monaco, Courier New, monospace&quot;&gt;&lt;br&gt;&lt;/font&gt;&lt;/div&gt;&lt;/pre&gt;" style="text;whiteSpace=wrap;html=1;fontSize=12;fontFamily=Helvetica;fontColor=default;" vertex="1" parent="1">
                    <mxGeometry x="42" y="920" width="560" height="110" as="geometry"/>
                </mxCell>
                <mxCell id="519" value="&lt;pre style=&quot;background-color: rgb(255, 255, 255); line-height: 18px;&quot;&gt;&lt;div style=&quot;color: rgb(0, 0, 0); font-family: Menlo, Monaco, &amp;quot;Courier New&amp;quot;, monospace; font-size: 12px; font-weight: normal; text-align: justify;&quot;&gt;&lt;span style=&quot;color: #000000;&quot;&gt;S.unvax&lt;/span&gt;&lt;/div&gt;&lt;div style=&quot;color: rgb(0, 0, 0); font-family: Menlo, Monaco, &amp;quot;Courier New&amp;quot;, monospace; font-size: 12px; font-weight: normal; text-align: justify;&quot;&gt;&lt;span style=&quot;color: #000000;&quot;&gt;I.unvax&lt;/span&gt;&lt;/div&gt;&lt;div style=&quot;color: rgb(0, 0, 0); font-family: Menlo, Monaco, &amp;quot;Courier New&amp;quot;, monospace; font-size: 12px; font-weight: normal; text-align: justify;&quot;&gt;&lt;span style=&quot;color: #000000;&quot;&gt;infection.unvax&lt;/span&gt;&lt;/div&gt;&lt;div style=&quot;color: rgb(0, 0, 0); font-family: Menlo, Monaco, &amp;quot;Courier New&amp;quot;, monospace; font-size: 12px; font-weight: normal; text-align: justify;&quot;&gt;&lt;span style=&quot;color: #000000;&quot;&gt;S.vax&lt;/span&gt;&lt;/div&gt;&lt;div style=&quot;color: rgb(0, 0, 0); font-family: Menlo, Monaco, &amp;quot;Courier New&amp;quot;, monospace; font-size: 12px; font-weight: normal; text-align: justify;&quot;&gt;&lt;span style=&quot;color: #000000;&quot;&gt;I.vax&lt;/span&gt;&lt;/div&gt;&lt;div style=&quot;color: rgb(0, 0, 0); font-family: Menlo, Monaco, &amp;quot;Courier New&amp;quot;, monospace; font-size: 12px; font-weight: normal; text-align: justify;&quot;&gt;&lt;span style=&quot;color: #000000;&quot;&gt;infection.vax&lt;/span&gt;&lt;/div&gt;&lt;div style=&quot;color: rgb(0, 0, 0); font-family: Menlo, Monaco, &amp;quot;Courier New&amp;quot;, monospace; font-size: 12px; font-weight: normal; text-align: justify;&quot;&gt;&lt;span style=&quot;color: #000000;&quot;&gt;.vaccination&lt;/span&gt;&lt;/div&gt;&lt;div style=&quot;text-align: justify;&quot;&gt;&lt;font face=&quot;Menlo, Monaco, Courier New, monospace&quot;&gt;&lt;br&gt;&lt;/font&gt;&lt;/div&gt;&lt;/pre&gt;" style="text;whiteSpace=wrap;html=1;fontSize=12;fontFamily=Helvetica;fontColor=default;" vertex="1" parent="1">
                    <mxGeometry x="210" y="1066" width="140" height="170" as="geometry"/>
                </mxCell>
                <mxCell id="520" value="labels" style="text;html=1;strokeColor=none;fillColor=none;align=left;verticalAlign=middle;whiteSpace=wrap;rounded=0;shadow=0;glass=0;sketch=0;fontFamily=Helvetica;fontSize=12;fontColor=default;" vertex="1" parent="1">
                    <mxGeometry x="210" y="1040" width="60" height="30" as="geometry"/>
                </mxCell>
                <mxCell id="521" value="variables.csv" style="text;html=1;strokeColor=none;fillColor=none;align=left;verticalAlign=middle;whiteSpace=wrap;rounded=0;shadow=0;glass=0;sketch=0;fontFamily=Helvetica;fontSize=12;fontColor=default;" vertex="1" parent="1">
                    <mxGeometry x="42" y="1040" width="60" height="30" as="geometry"/>
                </mxCell>
            </root>
        </mxGraphModel>
    </diagram>
</mxfile>